<?xml version="1.0" standalone="no"?>
<!DOCTYPE svg PUBLIC "-//W3C//DTD SVG 20010904//EN"
 "http://www.w3.org/TR/2001/REC-SVG-20010904/DTD/svg10.dtd">
<svg version="1.0" xmlns="http://www.w3.org/2000/svg"
 width="5000.000000pt" height="3334.000000pt" viewBox="0 0 5000.000000 3334.000000"
 preserveAspectRatio="xMidYMid meet">

<g transform="translate(0.000000,3334.000000) scale(0.100000,-0.100000)"
fill="#000000" stroke="none">
<path d="M32238 12137 c-58 -58 -245 -442 -343 -702 -75 -201 -129 -480 -123
-636 3 -64 6 -74 29 -91 21 -16 31 -18 47 -9 26 14 35 47 62 231 22 150 54
292 89 393 26 75 152 353 239 527 98 196 85 202 276 -116 279 -464 396 -735
511 -1189 63 -249 62 -238 21 -279 -39 -39 -41 -46 -55 -135 -6 -36 -16 -70
-23 -76 -7 -7 -69 -63 -138 -125 -223 -202 -270 -251 -270 -283 0 -31 18 -42
54 -33 13 3 107 82 210 176 105 96 195 170 206 170 37 0 72 -24 92 -64 11 -23
49 -78 85 -123 35 -45 75 -106 89 -135 14 -29 29 -60 33 -68 4 -8 22 -16 40
-18 24 -3 38 4 61 27 38 37 38 68 0 117 -147 192 -170 247 -172 409 -1 165 17
231 87 325 60 80 116 172 190 314 54 102 66 132 63 163 -3 32 -7 38 -29 41
-15 2 -32 -4 -41 -15 -9 -10 -70 -117 -136 -238 -93 -169 -126 -222 -146 -229
-36 -14 -53 5 -77 88 -137 472 -177 583 -287 803 -86 171 -149 281 -315 546
-111 179 -136 213 -175 238 -64 41 -111 39 -154 -4z"/>
<path d="M29351 11700 c-79 -58 -184 -254 -285 -533 -41 -113 -52 -132 -95
-175 -55 -52 -81 -119 -81 -203 0 -101 -17 -141 -131 -314 -125 -190 -276
-395 -290 -395 -5 0 -40 20 -77 45 -70 47 -90 53 -110 33 -30 -30 7 -87 97
-150 l24 -17 -36 -43 c-63 -76 -449 -459 -584 -580 -72 -65 -193 -186 -269
-269 -77 -83 -179 -194 -228 -248 -431 -469 -853 -1070 -1092 -1557 -77 -156
-87 -172 -121 -188 -76 -36 -240 -152 -315 -224 -89 -85 -336 -383 -414 -500
-1 -2 -26 9 -55 24 -133 67 -435 174 -659 233 -165 43 -279 64 -622 115 -502
74 -594 81 -1093 80 -528 -1 -779 -28 -1389 -148 -394 -78 -441 -85 -627 -92
-162 -5 -186 0 -238 49 -50 48 -68 99 -85 242 -37 320 -117 579 -270 883 -114
229 -287 506 -346 555 -66 56 -103 30 -257 -177 -143 -191 -179 -246 -342
-523 -78 -133 -148 -247 -156 -253 -26 -22 -43 -4 -48 52 -27 276 -35 311 -70
306 -22 -3 -22 -4 -22 -191 0 -163 -2 -189 -16 -197 -18 -10 -179 14 -212 31
-30 17 -45 67 -57 194 -15 169 -39 308 -54 324 -8 8 -22 10 -35 6 -18 -6 -21
-14 -21 -68 0 -34 7 -111 16 -172 23 -169 28 -251 16 -259 -6 -3 -66 -9 -134
-12 -137 -5 -283 -26 -400 -55 -42 -10 -88 -19 -101 -19 -34 0 -84 44 -92 80
-5 21 17 124 74 349 45 175 78 326 75 335 -3 9 -1 22 5 30 16 19 25 134 14
176 -9 35 -36 51 -54 33 -5 -5 -12 -57 -14 -116 -3 -58 -9 -116 -14 -129 -13
-30 -54 -181 -80 -291 -21 -90 -58 -187 -71 -187 -11 0 -36 31 -60 75 -123
222 -311 552 -343 598 -46 70 -153 185 -220 239 -89 70 -138 44 -215 -114
-110 -224 -184 -547 -203 -883 -34 -611 -35 -624 -89 -845 -32 -128 -71 -256
-104 -340 -29 -74 -66 -169 -80 -212 -15 -42 -36 -84 -46 -93 -24 -22 -60 -16
-183 31 -102 39 -140 41 -145 7 -4 -30 51 -70 130 -94 72 -22 128 -53 128 -71
0 -33 -81 -382 -92 -395 -9 -11 -43 -14 -171 -12 -128 2 -161 -1 -168 -12 -12
-20 -11 -24 11 -44 21 -19 121 -34 237 -35 85 0 117 -11 159 -52 22 -21 38
-28 51 -24 14 5 23 -1 34 -21 18 -34 118 -117 178 -147 85 -43 159 -60 266
-60 204 0 348 77 487 260 35 47 60 68 105 90 32 15 67 35 77 43 15 13 20 13
23 3 3 -7 21 -30 40 -50 69 -74 96 -149 133 -372 32 -195 84 -282 204 -340
162 -78 348 -60 530 54 123 77 187 161 204 270 10 61 10 65 -9 173 -21 128 5
128 184 2 253 -179 535 -337 576 -324 14 4 21 15 21 31 0 27 -1 28 -210 146
-69 39 -188 112 -265 163 -77 51 -164 105 -193 121 l-53 29 -30 -37 c-17 -21
-36 -38 -42 -38 -7 1 -36 32 -66 71 l-53 71 31 60 c37 72 39 109 8 163 -18 32
-29 41 -54 43 -39 4 -50 -21 -33 -74 35 -106 -42 -128 -252 -73 l-119 32 34
28 c65 53 65 117 2 149 -38 18 -166 19 -218 1 -44 -15 -77 -47 -77 -74 0 -11
8 -41 17 -68 11 -31 14 -52 8 -57 -14 -13 -182 -72 -205 -72 -18 0 -29 22 -44
93 -5 22 -12 27 -37 27 l-32 0 5 108 c4 92 11 124 47 232 46 137 91 226 208
412 157 250 256 473 284 643 9 60 9 81 -5 134 -9 35 -15 66 -13 68 13 12 173
34 293 40 162 7 208 1 229 -30 15 -23 105 -449 105 -496 0 -35 26 -122 42
-143 7 -9 22 -19 34 -22 36 -11 44 28 23 104 -24 85 -91 492 -87 528 3 26 5
27 56 24 75 -4 151 -32 175 -63 12 -17 22 -54 28 -105 18 -167 42 -287 61
-306 20 -20 45 -23 68 -8 13 8 13 13 2 31 -16 25 -45 252 -37 280 10 31 35 23
135 -41 54 -34 105 -60 120 -60 40 0 62 21 58 55 -2 25 -17 40 -85 85 -96 65
-143 107 -143 130 0 64 325 600 519 855 42 54 79 103 83 109 20 30 123 -116
283 -403 169 -302 268 -626 300 -986 4 -38 20 -110 36 -159 33 -101 35 -124
14 -192 -23 -77 -20 -108 15 -137 25 -22 30 -33 30 -72 0 -39 4 -47 25 -57 65
-29 118 65 120 212 l0 85 195 6 c228 7 357 24 645 84 203 42 402 78 495 89
422 50 581 60 935 59 377 0 647 -21 678 -52 28 -27 32 -89 9 -131 -27 -48 -66
-68 -150 -76 -40 -4 -75 -11 -78 -16 -4 -5 9 -30 27 -55 46 -65 52 -136 15
-180 -46 -54 -101 -68 -263 -66 l-141 1 8 -28 c12 -43 39 -77 68 -88 125 -44
248 -76 307 -79 39 -2 80 -6 93 -9 12 -2 84 -62 160 -132 76 -70 320 -284 542
-476 223 -192 410 -354 417 -360 8 -8 2 -48 -27 -159 -200 -774 -198 -1759 4
-2427 35 -113 35 -115 16 -129 -12 -8 -20 -25 -20 -42 0 -23 10 -36 50 -66 36
-27 58 -53 76 -92 13 -30 23 -55 21 -57 -1 -2 -54 37 -117 86 -63 50 -131 94
-150 100 -23 6 -92 6 -195 0 -88 -5 -254 -12 -370 -15 -453 -13 -514 -28
-1070 -265 -375 -159 -542 -221 -775 -286 -68 -19 -131 -41 -139 -48 -18 -19
-7 -63 19 -71 25 -8 150 17 303 61 121 35 289 100 732 284 288 119 376 150
527 180 102 21 142 24 750 46 l186 7 134 -98 c168 -123 188 -142 188 -176 0
-36 -69 -235 -125 -360 -90 -199 -122 -369 -102 -534 18 -149 15 -172 -34
-270 -47 -95 -46 -92 -38 -290 4 -102 -21 -142 -101 -165 -49 -14 -445 13
-467 32 -35 28 -4 102 73 174 49 47 53 53 48 86 -4 20 1 59 10 90 10 34 15 85
13 135 -2 66 2 88 22 130 l23 50 -46 134 c-25 74 -73 242 -106 374 -34 132
-84 309 -112 393 -44 132 -53 153 -74 158 -38 10 -54 -12 -54 -71 0 -56 9 -89
167 -625 l96 -325 -17 -86 c-20 -107 -20 -166 0 -245 15 -63 9 -104 -16 -104
-22 0 -95 -78 -116 -125 -32 -68 -33 -150 -1 -195 45 -68 48 -68 323 -81 138
-7 267 -9 287 -5 48 9 96 51 133 118 28 51 29 57 29 189 0 132 1 137 31 195
49 94 59 156 39 261 -36 189 -16 320 78 535 30 68 76 181 102 253 25 71 48
131 49 132 2 2 34 -39 72 -89 220 -297 566 -548 971 -706 144 -56 234 -83 408
-121 l120 -27 -3 -29 c-2 -17 -17 -68 -34 -115 -16 -47 -43 -121 -58 -165 -33
-91 -37 -162 -14 -211 24 -50 152 -167 220 -200 49 -24 71 -29 134 -29 169 0
500 33 558 56 29 11 59 81 75 177 l13 74 52 -63 c35 -43 52 -73 52 -92 0 -16
10 -38 25 -53 l25 -25 418 3 c361 3 437 0 567 -16 133 -16 232 -19 870 -20
409 -1 729 2 742 7 25 11 36 43 22 69 -19 35 -62 46 -230 58 -90 6 -184 12
-209 15 -25 2 -62 4 -83 4 l-37 1 1 173 c2 194 -9 254 -60 324 -62 86 -172
123 -366 123 -132 0 -155 -5 -380 -84 -73 -25 -156 -47 -189 -50 -61 -5 -76
-15 -76 -52 0 -26 34 -50 87 -62 48 -11 148 11 318 70 114 40 126 42 240 42
189 1 260 -39 286 -161 13 -62 0 -235 -21 -273 -14 -26 -53 -45 -121 -59 -106
-22 -139 4 -139 109 0 80 -14 131 -41 156 -19 17 -23 17 -47 3 -25 -14 -28
-23 -44 -129 -9 -63 -17 -116 -17 -118 -1 -2 -16 -9 -33 -16 -41 -17 -243 -12
-468 10 -181 19 -436 22 -640 9 -80 -6 -185 -10 -235 -10 l-89 0 -38 155
c-135 561 -151 667 -152 980 -1 184 3 259 17 345 54 318 156 582 325 840 43
66 159 224 258 351 220 283 246 321 252 382 3 38 0 50 -17 66 -35 32 -61 15
-140 -94 -70 -98 -104 -126 -136 -114 -22 9 -20 28 30 324 58 344 102 514 215
840 275 791 444 1170 755 1690 169 283 275 488 275 532 0 18 -8 33 -25 44 -14
9 -25 19 -25 23 0 4 25 22 55 40 81 49 105 82 105 142 0 41 5 55 34 86 45 51
68 98 75 157 13 101 58 89 206 -55 94 -92 117 -109 143 -109 54 0 69 62 30
131 -20 35 -205 200 -379 336 -84 66 -138 126 -193 210 -70 110 -84 180 -39
197 29 12 229 36 423 51 295 24 516 68 907 180 206 59 215 63 211 89 -2 11
-15 27 -30 36 -30 16 -7 21 -273 -54 -310 -87 -779 -160 -1177 -182 -143 -8
-146 -6 -158 128 -7 77 -13 96 -31 110 -27 23 -31 22 -62 -3 -40 -31 -51 -88
-38 -189 42 -310 172 -542 389 -697 87 -63 97 -112 26 -132 -25 -7 -54 -30
-93 -72 -63 -68 -90 -119 -91 -165 0 -20 -12 -46 -31 -70 -29 -36 -30 -42 -24
-97 7 -59 7 -59 -29 -89 -26 -21 -55 -67 -98 -152 -33 -66 -91 -168 -128 -226
-280 -436 -546 -1005 -790 -1690 -163 -459 -209 -639 -296 -1159 -84 -503 -93
-533 -236 -771 -124 -205 -216 -423 -265 -622 -15 -65 -30 -118 -33 -118 -3 0
-33 143 -68 318 -81 404 -146 700 -222 1005 -93 371 -211 811 -223 825 -14 18
-41 15 -61 -7 -35 -39 -31 -85 29 -291 72 -247 160 -595 230 -910 60 -270 166
-773 186 -888 12 -71 14 -74 52 -93 28 -15 42 -18 50 -10 22 22 24 9 10 -72
-35 -209 -27 -551 20 -792 27 -143 29 -228 4 -233 -10 -2 -59 21 -110 52 -158
95 -286 137 -475 156 -160 16 -316 46 -449 86 -732 220 -1206 647 -1423 1279
-72 212 -143 543 -165 770 -4 39 -9 81 -11 95 -7 42 -19 319 -19 430 0 706
183 1489 500 2135 170 346 344 613 605 923 104 124 127 145 206 185 27 14 83
51 124 83 203 157 378 224 590 227 261 2 421 -116 500 -368 43 -138 23 -301
-50 -415 -93 -145 -290 -251 -501 -269 -53 -5 -106 -14 -116 -20 -24 -12 -41
-52 -45 -100 -3 -30 -15 -45 -92 -110 -114 -96 -196 -192 -311 -366 -206 -310
-387 -678 -489 -993 -108 -336 -139 -684 -91 -1004 21 -140 112 -583 136 -663
67 -222 235 -483 432 -672 134 -127 377 -307 503 -371 68 -35 179 -61 348 -83
149 -19 159 -19 177 -3 20 18 25 59 10 82 -11 18 -116 49 -246 72 -199 35
-264 65 -466 216 -314 234 -522 495 -614 769 -26 76 -75 280 -75 309 0 11 9
16 28 16 40 0 91 36 108 75 9 22 14 70 14 132 0 98 0 98 35 135 18 21 43 38
54 38 12 0 21 6 21 13 0 7 21 42 46 78 83 115 98 172 73 264 -17 61 -157 357
-182 384 -12 13 -51 43 -87 66 -95 61 -97 65 -76 133 47 151 246 603 265 602
3 0 37 -43 76 -96 41 -56 79 -97 92 -100 14 -4 34 2 54 17 22 16 51 24 91 27
48 4 58 7 54 21 -3 9 -8 30 -12 46 -10 44 -31 81 -62 110 -26 24 -27 28 -27
133 0 59 -6 137 -14 173 l-14 65 59 85 c102 146 178 210 317 268 31 13 47 26
47 38 0 10 10 29 21 43 l21 25 -7 -30 c-3 -16 -26 -60 -50 -96 -50 -75 -95
-200 -121 -337 -22 -113 -13 -183 40 -312 20 -47 41 -118 48 -158 15 -90 35
-114 76 -91 36 19 39 56 16 188 -13 79 -23 110 -42 133 -46 54 -42 107 23 311
65 204 154 426 175 438 8 4 59 28 112 52 148 69 238 139 278 216 113 222 128
436 46 632 -9 21 158 271 318 474 227 289 488 629 638 831 169 229 269 349
429 520 63 67 132 144 154 172 36 46 44 51 80 52 58 1 67 10 76 84 5 35 12 73
17 83 6 10 26 55 46 100 33 73 37 89 35 156 -2 83 1 91 43 117 27 16 34 17 70
4 22 -7 83 -52 140 -103 111 -99 257 -206 443 -324 122 -78 142 -86 163 -65
35 35 -7 87 -128 159 -50 29 -144 93 -208 142 -64 49 -166 127 -227 172 -252
191 -254 193 -273 255 -30 95 -42 491 -21 693 11 99 10 109 -6 127 -10 11 -26
20 -37 20 -12 0 -18 7 -18 21 0 38 23 114 40 134 18 20 41 78 166 405 37 96
88 219 115 272 91 181 140 208 209 116 104 -138 238 -384 279 -508 35 -109
108 -421 116 -493 8 -84 36 -124 79 -113 46 12 60 60 46 170 -48 378 -185 732
-389 1003 -114 152 -207 190 -300 123z m-463 -1816 c40 -11 21 -64 -22 -64
-12 0 -34 9 -51 20 l-29 19 34 15 c41 18 39 17 68 10z m-20 -187 c36 -33 33
-34 -51 -28 -26 2 -77 55 -77 80 0 21 1 21 53 -5 28 -14 62 -35 75 -47z m-314
24 c47 -47 41 -85 -32 -190 -32 -47 -67 -101 -76 -118 l-17 -33 30 0 c37 0 51
-23 51 -84 0 -47 16 -66 57 -66 22 0 153 136 153 159 1 79 173 262 211 224 5
-5 13 -34 18 -64 5 -30 14 -65 21 -79 10 -23 3 -44 -73 -200 -77 -159 -94
-187 -190 -301 -106 -127 -168 -197 -327 -364 -47 -49 -126 -146 -175 -215
-124 -174 -311 -420 -499 -655 -200 -251 -331 -426 -432 -580 -43 -66 -80
-122 -82 -125 -2 -3 -8 4 -14 15 -18 34 -122 130 -171 159 -174 102 -396 117
-622 42 -55 -19 -101 -33 -103 -31 -5 4 81 173 146 290 89 157 402 619 557
820 203 263 624 716 735 790 38 25 82 65 97 87 76 111 159 176 210 163 14 -3
46 -26 72 -50 58 -54 90 -58 162 -18 l49 26 -39 33 c-68 59 -88 131 -52 190
24 39 178 192 206 205 37 16 96 3 129 -30z m-4795 -3317 c36 -21 71 -74 71
-107 0 -62 -91 -110 -158 -82 -77 33 -84 136 -12 192 21 17 67 16 99 -3z m256
-256 c89 -22 153 -78 195 -170 37 -82 21 -151 -46 -197 -52 -36 -92 -30 -176
23 -40 26 -89 51 -109 56 -70 19 -129 108 -129 196 0 41 40 91 83 103 35 10
118 5 182 -11z m-6567 -150 c2 -13 -3 -18 -18 -18 -29 0 -58 -16 -97 -53 -39
-36 -42 -66 -10 -102 18 -22 32 -27 69 -27 77 -2 118 40 133 135 7 42 17 46
39 15 31 -44 15 -115 -34 -156 -67 -56 -197 -40 -240 30 -26 42 -25 71 2 119
36 64 147 104 156 57z m1107 -894 c82 -20 105 -36 105 -77 0 -40 -29 -77 -103
-133 -101 -76 -187 -105 -309 -105 -108 0 -209 54 -230 123 -11 38 -10 40 25
76 38 39 125 95 165 107 19 5 22 3 22 -19 0 -14 -9 -44 -21 -66 -24 -46 -20
-85 12 -95 29 -9 45 8 64 70 25 80 93 135 165 135 19 0 67 -7 105 -16z m7130
-909 c13 -22 33 -73 46 -114 20 -69 21 -75 5 -107 -20 -43 -70 -74 -120 -74
l-39 0 6 84 c6 77 30 224 44 270 5 20 6 20 20 0 8 -10 25 -37 38 -59z m1075
-3405 c148 -21 286 -82 408 -180 92 -75 97 -85 97 -208 -1 -126 -16 -192 -45
-192 -26 0 -36 23 -43 97 -6 75 -10 83 -47 83 -45 0 -63 -43 -58 -143 l3 -81
-45 -8 c-55 -9 -86 8 -98 55 -6 23 -18 37 -43 49 -110 52 -130 158 -49 256 34
41 38 69 13 88 -32 24 -64 16 -104 -26 -51 -53 -74 -130 -65 -214 4 -33 8 -74
9 -91 1 -16 10 -36 20 -43 24 -18 22 -42 -4 -42 -12 0 -23 8 -26 19 -3 11 -11
17 -18 15 -39 -15 -185 112 -185 161 0 13 15 64 34 113 33 85 60 173 86 270
12 48 -6 45 160 22z"/>
<path d="M30779 10657 c-40 -27 -52 -73 -23 -94 39 -28 136 -5 149 36 8 26
-13 68 -39 75 -36 10 -52 7 -87 -17z"/>
<path d="M31161 10661 c-26 -26 -27 -42 -3 -69 13 -16 50 -26 162 -46 80 -14
185 -30 234 -36 143 -17 186 -49 264 -195 49 -92 68 -112 96 -102 24 10 20 73
-9 135 -14 30 -25 65 -25 78 0 20 5 24 30 24 43 0 80 20 87 47 11 45 -11 69
-87 98 -39 15 -76 36 -83 46 -11 17 -13 17 -30 2 -16 -16 -33 -15 -230 5 -360
38 -381 38 -406 13z"/>
<path d="M30508 10606 c-32 -13 -87 -47 -123 -77 -69 -56 -305 -302 -305 -318
0 -14 27 -39 50 -46 38 -12 105 32 236 157 72 68 158 145 191 171 69 53 80 76
51 112 -24 30 -28 31 -100 1z"/>
<path d="M32505 10604 c-18 -19 -150 -278 -202 -399 -54 -123 -123 -308 -123
-327 0 -11 10 -20 26 -24 39 -10 67 24 114 144 24 59 92 208 151 331 60 123
109 234 109 246 0 42 -44 60 -75 29z"/>
<path d="M32236 10558 c-19 -27 -21 -79 -4 -96 34 -34 108 5 108 58 0 55 -74
82 -104 38z"/>
<path d="M38470 10229 c-66 -32 -257 -231 -334 -347 -76 -114 -168 -278 -278
-492 -44 -85 -87 -158 -96 -162 -35 -14 -110 -8 -158 14 -44 19 -66 22 -209
22 -186 1 -211 -4 -456 -85 -129 -43 -185 -57 -207 -53 -23 5 -102 80 -332
315 -165 169 -331 331 -368 359 -87 66 -215 130 -259 130 -75 0 -157 -70 -211
-180 l-27 -55 0 -365 c0 -201 3 -393 7 -427 6 -51 5 -63 -6 -63 -24 0 -104 38
-160 75 -56 37 -84 43 -104 23 -20 -20 -14 -45 19 -83 39 -44 92 -76 186 -110
39 -15 78 -34 87 -44 18 -20 66 -200 66 -248 0 -20 -13 -74 -29 -122 -67 -193
-97 -429 -88 -685 8 -243 42 -422 122 -656 43 -123 49 -185 21 -205 -20 -15
-87 -30 -284 -64 -305 -53 -623 -202 -793 -372 -50 -50 -57 -62 -50 -81 5 -14
18 -24 32 -26 25 -3 53 14 224 134 138 97 315 172 520 223 102 25 269 51 328
51 50 0 47 4 82 -104 l23 -69 -29 -61 c-15 -34 -49 -135 -74 -226 -25 -91 -49
-176 -53 -190 -4 -13 -22 -34 -39 -45 -18 -11 -47 -29 -64 -40 -50 -31 -58
-51 -32 -76 20 -21 25 -21 67 -9 38 10 49 10 62 -1 19 -15 16 -58 -21 -424
-13 -126 -27 -270 -30 -320 -8 -120 -17 -138 -79 -174 -72 -40 -99 -81 -155
-228 -27 -71 -74 -190 -105 -266 -74 -183 -169 -512 -220 -767 -38 -189 -53
-324 -75 -685 -25 -404 -23 -385 -71 -608 -46 -214 -75 -408 -90 -602 -16
-204 -38 -379 -59 -465 l-19 -75 -1 48 c-2 85 -21 239 -46 363 -49 245 -138
445 -284 637 -46 62 -95 135 -107 162 -13 28 -39 129 -59 225 -73 353 -127
587 -157 670 -16 47 -38 121 -49 165 -11 44 -31 97 -44 117 -31 47 -31 66 0
128 32 63 33 113 3 134 -12 9 -30 16 -38 16 -20 0 -62 -44 -84 -87 -19 -38
-13 -60 33 -117 17 -21 31 -42 31 -46 0 -3 -16 -14 -35 -23 -46 -22 -61 -56
-69 -152 -5 -66 -35 -795 -72 -1750 -5 -131 -3 -192 9 -265 24 -145 29 -280
17 -445 -9 -119 -20 -434 -20 -562 0 -28 -26 -53 -55 -53 -27 0 -45 27 -76
118 -24 71 -44 92 -84 92 -52 0 -56 -14 -38 -122 19 -108 13 -128 -36 -128
-49 0 -65 26 -76 115 -10 79 -28 122 -58 136 -55 25 -77 -20 -77 -161 0 -82
-37 -109 -105 -78 -21 10 -25 18 -25 57 0 25 7 87 15 136 52 327 49 548 -11
885 -14 75 -124 575 -214 970 -40 176 -85 420 -100 540 -14 116 -25 152 -57
190 -28 34 -62 39 -86 12 -22 -24 -22 -46 8 -236 51 -320 100 -555 216 -1021
93 -373 124 -539 139 -762 21 -304 -37 -749 -102 -784 -20 -11 -324 -6 -460 6
-24 3 -119 6 -213 9 -255 6 -335 -13 -335 -80 0 -48 23 -56 144 -49 76 5 182
1 336 -11 189 -16 305 -18 730 -16 278 2 646 7 818 10 295 7 314 8 328 26 8
11 14 34 14 52 0 54 -26 64 -161 64 -100 0 -214 12 -226 24 -2 2 -8 57 -14
123 -9 95 -8 154 5 295 20 225 21 502 1 655 -16 119 -12 275 38 1572 1 47 6
67 19 75 9 5 20 7 23 4 13 -13 86 -308 110 -443 41 -234 84 -336 223 -518 42
-56 91 -129 109 -162 98 -188 160 -481 170 -811 8 -264 8 -265 -165 -364 -94
-53 -97 -56 -100 -93 -3 -35 -1 -38 35 -52 129 -50 145 -78 144 -244 -1 -112
0 -121 23 -147 l23 -28 135 1 c164 2 207 12 264 65 57 53 84 124 84 222 0 73
0 74 32 89 40 19 58 8 58 -37 0 -41 44 -130 77 -156 32 -25 69 -26 83 -1 28
52 -10 140 -74 170 -23 12 -52 21 -64 21 -15 0 -22 6 -22 20 0 25 119 83 205
100 66 14 152 7 194 -15 45 -23 54 -60 49 -199 -3 -91 -8 -130 -20 -148 -19
-29 -66 -44 -179 -59 -108 -14 -287 -56 -316 -75 -16 -10 -23 -24 -23 -44 0
-57 12 -57 400 8 318 54 356 62 373 83 10 12 17 34 15 48 -2 20 -13 29 -58 46
-61 23 -67 35 -69 125 -1 55 14 100 35 107 7 2 38 -19 70 -47 42 -37 65 -50
83 -48 34 4 56 45 47 84 -17 66 -175 181 -311 226 -59 19 -91 23 -200 23 -116
0 -139 -3 -217 -29 -48 -15 -117 -47 -153 -71 l-65 -43 -23 28 c-12 16 -49 50
-81 77 l-59 48 6 130 c6 120 12 158 37 256 9 34 13 37 59 42 71 8 107 30 183
110 170 177 300 419 359 662 10 44 26 134 34 200 26 194 65 326 144 483 51
101 98 147 151 147 59 0 86 -30 199 -228 60 -104 63 -111 72 -205 14 -134 29
-195 98 -385 71 -196 73 -205 105 -377 14 -74 50 -220 81 -325 62 -212 90
-341 100 -460 4 -45 13 -87 21 -96 21 -24 62 -12 86 25 17 27 19 44 15 126 -4
75 -14 126 -50 245 -26 83 -60 215 -77 295 -43 204 -91 382 -170 625 -37 116
-71 229 -75 253 l-7 42 45 0 c76 0 116 46 279 319 288 481 372 706 371 996 0
333 -124 655 -380 992 -210 275 -346 548 -422 846 -38 146 -64 305 -65 391
l-1 69 123 64 c100 53 122 69 122 87 0 59 -44 59 -160 1 -49 -25 -92 -45 -94
-45 -3 0 -6 75 -8 166 -3 163 -3 166 -28 185 -14 10 -30 23 -37 29 -6 5 -16
32 -22 61 -13 59 1 95 42 104 12 3 139 9 282 14 280 9 325 17 325 56 0 48 -10
49 -353 50 l-321 0 -12 70 c-7 39 -13 73 -13 76 -1 4 19 12 43 18 24 6 93 34
152 62 417 196 689 286 1004 333 214 32 281 69 331 181 18 41 24 77 30 203 10
197 22 268 71 422 32 99 48 132 74 158 29 29 39 33 66 28 68 -13 95 -63 179
-324 120 -373 146 -431 232 -521 116 -121 255 -176 538 -211 85 -10 211 -29
280 -41 108 -19 147 -21 304 -16 202 7 475 48 557 85 52 23 63 18 45 -19 -15
-29 -180 -96 -322 -129 -83 -20 -106 -21 -280 -15 -201 8 -280 1 -430 -36
-111 -28 -165 -55 -165 -83 0 -28 18 -46 45 -46 11 0 65 12 120 27 97 27 108
27 385 28 l285 1 192 57 c106 31 196 57 200 57 13 0 147 -455 140 -474 -4 -9
-17 -20 -29 -25 -47 -17 -307 -45 -418 -44 -99 1 -129 6 -215 32 -116 37 -282
66 -318 57 -14 -3 -29 -15 -32 -27 -12 -35 19 -56 111 -73 46 -8 132 -32 192
-52 97 -34 119 -38 237 -42 86 -2 170 1 250 12 66 9 174 19 240 23 l120 6 -37
-41 c-56 -62 -55 -107 4 -262 83 -220 100 -299 105 -475 4 -124 0 -201 -16
-340 -40 -339 -42 -347 -218 -699 -203 -406 -240 -542 -230 -836 10 -276 43
-384 194 -634 207 -342 261 -412 337 -439 28 -10 63 -16 79 -13 15 3 27 1 27
-4 0 -5 27 -168 59 -362 70 -417 86 -536 106 -803 22 -304 55 -514 110 -705
13 -47 25 -103 27 -125 2 -32 9 -43 33 -57 38 -21 79 -23 95 -3 16 19 9 74
-25 191 -61 211 -92 412 -125 829 -15 187 -44 400 -80 592 -16 87 -36 203 -45
258 -8 55 -18 116 -21 135 l-6 35 42 -40 c97 -94 141 -188 195 -423 56 -241
175 -713 184 -731 16 -29 45 -49 84 -56 32 -6 37 -11 37 -36 0 -52 -31 -263
-60 -414 -36 -181 -38 -237 -10 -265 24 -24 48 -25 76 -6 19 14 21 12 37 -73
35 -189 95 -321 146 -321 9 0 34 -26 56 -56 22 -31 48 -62 59 -69 10 -8 24
-24 30 -37 20 -40 62 -51 246 -65 133 -10 329 -12 815 -8 937 8 871 5 930 37
28 14 74 47 102 72 28 25 55 46 60 46 6 0 18 -9 28 -20 26 -29 44 -26 158 27
91 42 112 47 187 51 92 5 186 -7 318 -39 71 -17 88 -18 124 -7 38 11 42 10 59
-11 11 -13 19 -31 19 -40 0 -35 31 -108 62 -145 65 -79 144 -91 370 -56 182
28 231 52 269 135 48 104 -2 208 -128 267 -55 26 -58 38 -50 197 8 157 27 303
83 645 46 277 67 371 136 611 43 152 48 183 27 196 -38 24 -60 1 -94 -100 -26
-80 -47 -112 -60 -91 -7 11 -55 13 -143 4 -50 -6 -62 -11 -71 -30 -15 -33 -55
-40 -110 -20 -60 21 -77 20 -101 -4 -29 -29 -26 -71 8 -102 37 -36 68 -46 148
-48 61 -2 78 2 144 34 41 20 80 36 87 36 17 0 13 -26 -39 -298 l-42 -212 -105
0 c-206 -1 -261 -15 -261 -65 0 -34 21 -53 89 -80 75 -29 95 -30 135 -10 33
17 116 17 116 1 0 -6 -9 -78 -20 -161 -11 -82 -20 -169 -20 -191 0 -41 0 -41
-37 -42 -35 0 -285 -52 -325 -67 -18 -7 -21 0 -37 85 -6 30 -13 65 -17 78 l-7
23 99 -2 98 -2 13 29 c7 16 12 46 13 67 0 35 -2 37 -32 37 -17 0 -58 7 -90 16
-48 14 -66 15 -96 6 -20 -6 -39 -8 -43 -4 -3 4 -14 45 -23 92 -10 47 -33 138
-52 202 -19 64 -34 119 -34 122 0 2 21 -2 47 -10 92 -28 242 -13 263 26 31 58
-5 96 -156 165 -203 92 -271 142 -302 221 l-20 51 46 -4 c35 -4 70 3 137 26
120 42 149 78 106 133 -28 35 -92 52 -206 53 -180 3 -157 -10 -194 109 -35
115 -56 216 -66 321 -8 88 -33 200 -54 245 -11 25 -24 36 -42 38 -52 6 -54
-11 -25 -211 48 -323 79 -435 241 -862 117 -309 183 -521 235 -760 16 -77 44
-180 61 -229 22 -65 31 -109 32 -165 l2 -76 -38 -18 c-71 -35 -154 -43 -264
-24 -174 31 -273 19 -408 -48 -106 -52 -108 -52 -117 25 -29 252 -57 312 -180
392 -27 16 -48 37 -48 45 0 8 11 29 25 47 48 62 56 98 62 274 4 124 1 207 -11
322 -42 382 -142 642 -316 824 l-78 81 -4 110 c-4 99 -7 116 -35 171 -31 60
-82 114 -107 114 -22 0 -66 -40 -66 -61 0 -11 12 -41 26 -68 14 -28 28 -75 31
-107 l6 -58 -35 22 c-57 35 -98 25 -98 -25 0 -17 17 -35 63 -69 99 -72 97 -70
97 -118 0 -25 -5 -57 -10 -71 -9 -24 -14 -26 -43 -21 -93 17 -107 18 -122 6
-44 -37 22 -142 111 -176 41 -16 47 -16 114 2 87 22 94 19 138 -65 46 -89 43
-122 -12 -175 -32 -30 -46 -52 -51 -81 -5 -33 -21 -54 -94 -125 -61 -59 -109
-95 -154 -118 -72 -35 -86 -57 -68 -105 17 -45 51 -51 155 -28 211 46 241 51
284 51 25 0 61 -5 79 -12 25 -9 41 -9 63 -1 l30 11 0 -132 c0 -133 0 -133 -22
-129 -14 2 -46 -10 -82 -32 l-59 -35 -51 35 c-69 47 -105 57 -144 38 -42 -20
-84 -77 -98 -133 -9 -37 -15 -45 -34 -45 -19 0 -28 12 -51 70 -30 74 -49 95
-84 95 -59 0 -72 -91 -31 -206 53 -146 157 -187 305 -119 41 19 69 25 124 25
42 0 67 -4 62 -9 -24 -22 -176 -103 -230 -122 -46 -17 -89 -22 -185 -25 -179
-4 -241 -24 -226 -72 10 -30 59 -42 171 -40 73 1 110 -3 138 -15 45 -20 193
-132 201 -153 19 -50 -9 -129 -56 -156 -21 -12 -524 -15 -1220 -9 l-88 1 0 39
c0 33 -6 44 -31 63 -68 51 -107 95 -118 133 -15 57 1 75 90 103 99 29 118 47
134 124 16 75 66 202 92 230 10 12 51 43 92 70 86 56 124 61 186 23 47 -29 89
-31 145 -9 70 28 80 86 29 166 -60 93 -88 97 -270 37 -201 -65 -296 -116 -387
-207 -43 -42 -91 -95 -108 -116 -22 -29 -35 -38 -47 -33 -10 4 -50 56 -88 116
-42 64 -80 113 -92 117 -12 4 -46 23 -75 43 l-54 35 6 45 c3 24 6 50 6 57 0 9
15 5 49 -13 49 -25 50 -25 100 -8 75 25 112 53 159 125 96 146 126 319 75 427
-9 19 -40 53 -70 75 -60 44 -79 74 -69 113 l7 26 30 -30 c43 -44 96 -57 164
-42 78 18 164 64 218 117 40 39 47 52 47 84 0 44 -26 70 -87 91 -46 15 -182 7
-243 -14 -50 -18 -70 -10 -70 30 0 44 28 92 102 171 59 62 78 91 92 136 11 33
15 67 11 83 -9 38 -61 83 -96 83 l-30 0 23 41 c13 22 34 48 48 57 14 8 50 32
80 52 30 21 132 79 225 130 195 106 244 139 314 215 97 107 146 225 161 389
12 133 22 162 81 251 55 82 118 133 175 142 29 5 40 1 67 -24 18 -16 50 -41
72 -56 22 -14 85 -72 140 -127 l100 -100 -2 -48 c-1 -26 -5 -113 -8 -193 -6
-134 -5 -150 13 -185 60 -116 201 -176 327 -139 82 23 167 108 190 189 36 123
-40 242 -162 253 -107 10 -115 19 -138 170 -17 116 -31 154 -91 244 -63 95
-61 99 35 99 72 0 83 3 112 27 41 34 59 79 59 143 0 58 -15 93 -57 131 -44 41
-87 59 -143 59 -45 0 -56 -4 -80 -30 -16 -17 -31 -43 -35 -59 -3 -16 -14 -36
-24 -45 -17 -15 -20 -15 -39 1 -13 11 -28 43 -37 83 -9 36 -23 82 -31 103 -21
55 -17 91 11 125 17 20 25 42 25 66 0 48 19 84 69 129 56 50 63 49 101 -20 13
-23 39 -55 59 -71 52 -42 191 -119 303 -168 53 -23 116 -56 140 -72 45 -31
210 -176 336 -294 56 -53 79 -68 102 -68 31 0 80 37 80 61 0 7 -25 59 -56 116
-31 57 -53 111 -50 119 6 17 52 19 62 3 4 -7 23 -9 51 -5 67 9 83 21 83 62 0
32 -4 37 -47 55 -114 48 -198 96 -239 136 -25 24 -51 43 -58 43 -32 0 -78 24
-86 46 -6 14 -5 57 2 109 10 74 10 90 -5 120 -30 63 -101 78 -179 39 -36 -18
-88 -18 -115 1 -27 19 -63 113 -63 163 1 20 7 64 15 97 13 53 13 61 -2 77 -39
43 -100 6 -127 -76 -10 -30 -16 -84 -16 -135 0 -98 -10 -95 -36 11 -11 47 -23
72 -36 79 -20 11 -20 11 1 33 25 26 26 43 6 65 -8 9 -17 34 -20 56 -6 35 -2
47 33 100 21 33 66 88 100 122 91 93 102 171 33 237 -43 41 -100 46 -150 13
-58 -39 -109 -57 -175 -64 l-59 -6 6 98 c6 104 -1 135 -32 135 -39 0 -54 -35
-62 -148 -4 -59 -11 -122 -15 -139 -8 -42 8 -63 51 -63 31 0 33 -3 39 -42 3
-24 13 -74 22 -113 l16 -70 -32 -52 c-18 -29 -30 -59 -27 -67 9 -22 55 -31 89
-18 39 14 44 0 32 -94 -12 -91 -5 -114 36 -114 18 0 39 -9 53 -22 l22 -23 -72
-5 -73 -5 -97 -96 c-54 -53 -128 -119 -165 -148 -78 -61 -151 -138 -216 -230
-25 -36 -80 -106 -122 -156 -41 -49 -86 -105 -99 -123 -16 -23 -36 -36 -68
-45 -51 -13 -61 -28 -46 -68 10 -25 0 -50 -102 -256 -89 -179 -119 -231 -142
-244 -20 -11 -50 -58 -110 -170 -45 -85 -85 -167 -89 -184 -4 -16 -21 -48 -39
-70 -90 -113 -105 -137 -105 -170 0 -28 -13 -50 -72 -119 -103 -120 -198 -279
-275 -461 -24 -57 -32 -69 -28 -44 3 20 14 54 25 76 27 56 43 122 94 388 53
269 79 365 148 535 191 475 242 663 270 995 8 92 12 416 12 940 0 694 -3 816
-17 920 -44 316 -125 515 -278 680 -30 33 -70 82 -89 108 -45 64 -124 114
-245 156 -84 30 -114 35 -185 36 -71 0 -93 -4 -133 -25 -63 -32 -136 -103
-186 -180 -101 -156 -149 -417 -97 -519 40 -76 123 -145 163 -135 15 4 39 -21
120 -128 108 -142 171 -255 200 -359 24 -88 24 -540 0 -700 -26 -168 -156
-746 -177 -782 -10 -18 -21 -48 -25 -67 -3 -19 -12 -48 -19 -65 -7 -16 -23
-59 -34 -95 -11 -36 -35 -102 -52 -148 -31 -80 -33 -83 -54 -69 -11 8 -23 22
-24 32 -2 9 -21 43 -41 75 -21 31 -45 79 -56 105 -17 47 -17 52 3 224 12 97
23 199 25 226 7 103 -12 903 -23 980 -22 153 -60 253 -142 374 -28 41 -76 127
-106 190 -29 63 -67 134 -84 158 -16 24 -38 70 -49 101 -15 43 -28 63 -53 79
-25 16 -38 35 -49 70 -75 246 -127 429 -127 449 0 33 34 51 108 57 70 6 92 18
92 52 0 36 -20 44 -116 49 -49 2 -97 7 -106 11 -17 7 -37 79 -73 265 -74 379
-251 885 -408 1163 -56 101 -100 150 -152 168 -19 7 -35 17 -35 22 0 4 22 32
48 60 26 29 87 99 134 157 108 133 298 339 419 454 228 218 239 229 239 251 0
31 -32 57 -58 48 -33 -13 -206 -170 -352 -319 -135 -139 -253 -272 -365 -414
-71 -89 -84 -101 -109 -97 -17 2 -26 26 -57 152 -42 170 -127 457 -165 556
-48 128 -202 363 -272 417 -48 37 -131 41 -192 11z m-34 -2319 c18 -12 42 -40
54 -65 18 -36 20 -50 11 -80 -20 -75 -91 -135 -157 -135 -75 0 -162 97 -150
166 8 41 59 102 101 120 45 20 103 17 141 -6z m-1508 -250 c45 -28 74 -77 67
-115 -7 -37 -59 -92 -95 -100 -61 -13 -140 51 -140 115 0 37 36 89 73 105 43
19 56 18 95 -5z m3961 -3267 c11 -21 50 -67 86 -103 82 -80 125 -136 200 -265
78 -133 100 -161 152 -192 32 -18 52 -24 73 -19 17 3 30 4 30 3 0 -2 -18 -46
-39 -99 -98 -239 -181 -545 -240 -883 -19 -107 -49 -229 -81 -330 -66 -207
-61 -197 -72 -150 -4 22 -26 99 -48 170 -22 72 -60 227 -84 345 -114 552 -136
652 -166 755 -35 122 -40 192 -16 250 9 21 41 126 72 234 31 108 64 216 74
241 9 25 20 53 23 63 9 25 14 22 36 -20z m2365 -3641 c10 -9 32 -44 47 -77 50
-105 32 -245 -37 -292 -21 -13 -21 -12 -27 82 -6 103 -28 167 -61 173 -35 7
-41 -15 -46 -166 l-5 -147 -34 -3 c-19 -2 -50 -1 -68 3 l-34 6 7 58 c4 35 2
72 -5 93 -13 38 -73 103 -139 151 l-43 31 33 17 c87 44 238 104 278 109 48 7
100 -8 134 -38z m-8630 -12 c14 -5 26 -16 26 -25 0 -8 15 -41 32 -73 29 -51
33 -65 32 -132 -1 -43 -7 -89 -15 -105 -18 -38 -69 -54 -101 -33 -20 13 -23
24 -24 84 -1 82 -10 102 -78 172 l-51 53 30 24 c25 21 76 41 112 44 6 1 23 -3
37 -9z"/>
<path d="M38300 7850 c-26 -26 -28 -100 -2 -123 31 -28 65 -30 96 -6 25 20 28
27 23 63 -4 27 -15 49 -32 63 -32 28 -59 29 -85 3z"/>
<path d="M36825 7605 c-54 -53 -11 -133 65 -121 65 10 89 69 49 120 -28 35
-80 36 -114 1z"/>
<path d="M29480 9825 c-30 -36 -17 -50 348 -380 164 -148 184 -162 218 -146
45 20 30 48 -83 155 -219 208 -428 386 -455 386 -9 0 -21 -7 -28 -15z"/>
<path d="M30226 9618 c-28 -39 -11 -217 22 -250 19 -19 50 2 60 41 17 69 -24
231 -59 231 -4 0 -15 -10 -23 -22z"/>
<path d="M33527 9302 c-10 -10 -17 -25 -17 -32 0 -7 22 -61 49 -120 71 -152
86 -264 40 -306 -13 -12 -105 -29 -346 -65 -537 -78 -695 -108 -925 -175 -224
-65 -263 -87 -238 -134 15 -28 42 -25 173 14 242 73 536 132 973 196 322 47
356 48 385 19 19 -19 21 -29 16 -88 -3 -36 -20 -122 -37 -190 -28 -113 -29
-126 -15 -147 36 -56 86 -33 125 58 37 87 73 264 73 363 0 101 -18 276 -39
379 -27 131 -106 246 -169 246 -18 0 -39 -8 -48 -18z"/>
<path d="M32325 9226 c-101 -44 -114 -165 -23 -212 81 -42 195 51 172 140 -8
33 -68 86 -97 86 -12 -1 -36 -7 -52 -14z"/>
<path d="M32930 9067 c-224 -126 -220 -123 -220 -151 0 -39 30 -40 117 -6 128
51 286 152 296 189 5 20 -20 52 -39 50 -5 0 -74 -37 -154 -82z"/>
<path d="M30124 8726 c-46 -46 -47 -91 -3 -141 26 -29 38 -35 71 -35 105 0
134 145 38 195 -44 23 -69 18 -106 -19z"/>
<path d="M28922 8606 c-24 -31 -50 -172 -35 -194 17 -28 40 -37 70 -26 37 13
55 53 61 136 4 56 2 72 -13 88 -25 27 -60 25 -83 -4z"/>
<path d="M31458 8599 c-82 -12 -177 -37 -225 -60 -70 -33 -93 -119 -43 -164
10 -9 46 -20 80 -25 34 -5 69 -15 79 -24 9 -8 36 -16 60 -18 57 -4 70 -23 52
-75 -31 -88 -85 -187 -122 -224 -64 -64 -51 -119 28 -119 37 0 49 6 90 45 25
25 56 46 67 47 39 2 69 -3 99 -18 51 -27 117 8 117 61 0 19 -11 32 -44 52 -54
33 -59 41 -95 165 l-28 97 35 23 c72 47 100 124 68 186 -30 58 -83 71 -218 51z"/>
<path d="M43874 8521 c-64 -39 -291 -329 -388 -494 -29 -51 -104 -185 -165
-299 -62 -115 -134 -245 -161 -290 -28 -45 -50 -93 -50 -107 0 -14 -10 -34
-24 -46 -34 -28 -179 -314 -210 -412 -30 -98 -44 -180 -48 -286 -3 -71 -1 -80
20 -97 17 -14 22 -28 22 -68 0 -32 -5 -54 -15 -62 -12 -10 -15 -28 -13 -64 3
-46 6 -53 35 -67 17 -8 46 -32 65 -52 60 -63 104 -60 253 16 44 22 101 51 127
64 59 29 85 63 94 118 8 59 -22 123 -76 159 -22 14 -43 26 -48 26 -4 0 -29 14
-55 30 -58 37 -77 37 -115 5 -41 -34 -90 -53 -154 -61 l-54 -6 3 58 c5 83 31
208 59 282 13 35 61 135 106 222 77 148 85 160 111 160 28 0 164 74 280 153
32 21 82 46 110 55 61 20 87 53 107 136 7 31 16 56 19 56 4 0 85 -79 181 -175
177 -178 244 -232 313 -255 30 -9 41 -9 52 0 27 23 17 47 -32 76 -72 41 -83
51 -294 256 l-196 191 28 95 c16 52 35 100 43 106 7 6 17 28 20 49 15 84 67
233 87 250 54 45 112 -7 153 -139 16 -49 50 -137 77 -195 27 -58 49 -110 49
-116 0 -6 6 -13 14 -16 13 -5 76 -89 76 -100 0 -3 -27 -8 -60 -12 -66 -8 -83
-21 -78 -62 3 -25 7 -28 44 -31 36 -3 42 -7 47 -30 3 -15 41 -79 84 -142 86
-126 106 -140 149 -99 29 28 30 42 3 113 -12 31 -19 59 -16 62 3 4 17 4 31 0
27 -7 78 -85 110 -168 27 -73 58 -113 86 -113 20 0 25 5 26 25 0 14 8 37 18
52 17 27 17 30 1 77 -21 58 -16 78 25 92 36 13 47 45 31 90 -14 41 -15 39 13
39 19 0 28 -11 49 -57 40 -92 41 -102 19 -123 -24 -23 -20 -52 26 -155 25 -57
35 -71 55 -73 33 -4 42 24 26 77 -10 33 -9 56 6 135 17 88 19 94 37 85 36 -19
58 -70 58 -134 0 -48 7 -75 35 -133 29 -61 38 -72 59 -72 14 0 35 10 46 23 30
31 22 90 -24 181 -20 39 -36 78 -36 87 0 23 26 42 104 74 38 16 89 48 114 70
l45 41 9 190 c10 233 13 250 45 280 40 37 70 31 123 -24 34 -36 55 -71 78
-130 52 -136 85 -250 78 -274 -5 -21 -84 -127 -140 -188 -59 -65 -155 -201
-161 -229 -14 -66 43 -84 74 -23 11 20 57 84 104 143 46 58 96 126 111 152 16
26 31 47 35 47 22 0 52 -57 86 -158 20 -62 43 -118 50 -126 11 -10 -1 -21 -71
-61 -102 -60 -133 -89 -118 -113 18 -28 41 -25 101 12 32 20 73 41 92 47 31
11 36 10 54 -12 29 -36 64 -109 81 -172 9 -31 23 -81 31 -111 16 -58 43 -79
70 -56 34 28 3 184 -60 310 -19 38 -35 76 -35 83 0 17 42 57 60 57 40 0 761
415 803 462 24 28 21 47 -8 54 -21 5 -98 -36 -422 -226 -339 -197 -400 -230
-419 -222 -17 8 -30 44 -73 194 -78 279 -86 238 95 474 85 109 154 207 154
216 0 9 -9 20 -21 23 -29 10 -69 -31 -195 -197 -57 -75 -108 -139 -113 -142
-21 -14 -42 11 -85 97 -51 106 -170 271 -244 340 -84 77 -131 85 -206 36 -85
-57 -233 -250 -322 -419 -19 -36 -55 -92 -82 -126 -26 -34 -55 -75 -64 -92
-12 -23 -26 -33 -54 -38 -38 -7 -194 9 -266 27 -44 11 -34 -18 -137 392 -38
153 -75 285 -82 293 -15 18 -45 18 -52 1 -3 -8 10 -85 29 -173 18 -87 34 -176
34 -197 0 -36 -2 -38 -27 -35 -23 3 -36 22 -108 159 -89 170 -152 266 -230
347 -57 58 -88 66 -141 33z"/>
<path d="M32525 8323 c-125 -12 -291 -45 -302 -60 -17 -22 -16 -28 2 -43 12
-10 61 -10 237 -1 123 7 287 15 366 18 150 6 166 12 160 55 -2 16 -12 25 -33
29 -32 7 -362 8 -430 2z"/>
<path d="M29946 8271 c-18 -20 -18 -23 -4 -37 24 -24 117 -43 281 -56 131 -10
150 -9 164 4 18 19 10 55 -16 63 -47 15 -197 36 -296 41 -104 6 -111 5 -129
-15z"/>
<path d="M33541 8033 c-19 -13 -22 -23 -19 -66 3 -50 3 -50 -42 -77 -33 -19
-46 -33 -48 -52 -4 -37 29 -68 72 -68 46 0 67 22 59 61 -4 23 3 48 28 100 25
53 31 74 23 86 -16 26 -49 33 -73 16z"/>
<path d="M30630 7729 c-69 -32 -224 -104 -345 -161 -121 -56 -232 -114 -247
-129 -37 -36 -37 -66 1 -74 23 -5 86 22 342 143 447 213 449 213 455 239 16
62 -47 57 -206 -18z"/>
<path d="M33262 7724 c-33 -23 -27 -53 18 -91 41 -35 60 -79 60 -143 0 -19 7
-44 15 -54 22 -28 19 -35 -19 -51 -19 -8 -41 -22 -50 -30 -58 -59 55 -146 150
-115 63 21 72 58 31 137 -9 17 -13 33 -10 37 4 4 6 36 5 71 -3 61 -1 66 33
103 37 42 44 72 21 92 -17 13 -180 60 -211 60 -11 0 -31 -7 -43 -16z"/>
<path d="M8858 7615 c-109 -27 -251 -116 -333 -206 -52 -58 -130 -180 -157
-247 -20 -50 -23 -74 -23 -202 -1 -80 -6 -253 -13 -385 -18 -349 -2 -457 100
-659 60 -119 128 -231 205 -334 84 -114 348 -373 513 -504 80 -64 177 -149
216 -189 l71 -74 11 -141 c18 -236 7 -254 -163 -254 -90 0 -117 -3 -129 -16
-19 -19 -20 -25 -3 -47 9 -13 34 -18 107 -23 105 -7 131 -18 149 -63 22 -51
46 -49 75 7 9 18 27 37 39 41 12 5 74 9 137 10 63 1 144 6 180 11 36 4 129 11
207 15 115 6 145 10 157 24 14 15 14 20 1 38 -21 30 -89 34 -348 22 -260 -13
-255 -15 -275 68 -19 80 -35 270 -29 347 3 40 13 103 22 140 20 77 14 112 -20
128 -23 10 -23 12 -21 142 4 143 11 172 81 299 l37 67 -60 72 c-74 92 -241
317 -316 427 -43 64 -56 90 -52 108 3 13 9 33 12 46 4 16 -4 33 -29 62 -52 60
-70 103 -75 177 -7 104 12 178 88 333 137 280 151 413 64 608 -20 45 -42 88
-49 95 -7 8 -42 24 -80 38 -86 31 -216 40 -297 19z m234 -97 c87 -26 148 -130
148 -251 -1 -130 -25 -223 -94 -358 -64 -124 -106 -245 -106 -305 0 -18 -8
-38 -20 -49 -25 -23 -26 -65 -1 -136 26 -77 101 -222 160 -309 27 -40 48 -77
45 -81 -6 -11 -94 -39 -121 -39 -42 0 -63 33 -63 98 0 75 -20 98 -77 87 -43
-8 -53 -18 -53 -57 0 -21 9 -34 38 -53 46 -30 68 -66 77 -126 14 -93 -36 -148
-139 -154 -28 -2 -54 -4 -58 -4 -3 -1 -12 -17 -18 -36 -25 -76 20 -174 162
-349 113 -140 107 -132 80 -117 -35 18 -230 216 -298 301 -85 107 -126 166
-190 276 -108 189 -149 329 -147 514 1 132 20 320 34 335 18 18 40 -21 51 -91
13 -81 26 -101 56 -85 24 13 38 80 27 133 -4 18 -24 65 -45 103 -44 81 -64
146 -81 262 l-12 83 41 82 c22 46 62 106 87 135 57 65 194 162 258 184 60 20
202 24 259 7z"/>
<path d="M37567 7267 c-54 -16 -83 -38 -91 -73 -9 -34 3 -52 84 -131 81 -80
85 -98 45 -189 -17 -39 -47 -78 -94 -123 -78 -76 -93 -98 -80 -122 14 -28 55
-31 98 -10 42 22 83 59 148 134 l42 49 43 -35 c63 -50 131 -87 161 -87 17 0
32 9 42 24 20 31 10 52 -42 91 -58 43 -133 117 -149 147 -25 47 -18 86 26 141
22 27 43 60 46 73 8 33 -8 75 -38 97 -33 25 -172 33 -241 14z"/>
<path d="M3999 7255 c-28 -15 -82 -92 -127 -181 -61 -121 -108 -286 -172 -596
-6 -32 -16 -58 -22 -58 -6 0 -61 -25 -123 -54 -129 -63 -216 -131 -282 -219
-64 -87 -89 -145 -139 -330 -25 -89 -52 -178 -62 -197 -32 -66 -120 -101 -155
-62 -8 9 -36 78 -60 152 -51 154 -171 464 -193 498 -17 26 -52 29 -61 6 -3 -9
10 -57 30 -107 163 -422 200 -515 212 -539 33 -59 9 -126 -63 -178 -57 -41
-87 -105 -78 -165 10 -63 53 -94 98 -71 23 12 26 11 48 -31 13 -24 34 -52 46
-62 15 -12 21 -25 18 -38 -4 -14 13 -47 52 -104 57 -83 134 -235 134 -264 0
-8 -5 -15 -12 -15 -7 0 -27 -14 -44 -31 -23 -22 -45 -33 -77 -36 l-44 -5 -46
72 c-38 59 -51 93 -72 186 -30 126 -52 166 -82 148 -26 -16 -27 -48 -3 -164
26 -128 52 -189 108 -258 43 -53 43 -54 37 -115 -5 -56 -3 -69 25 -127 18 -38
34 -91 40 -131 4 -37 11 -72 15 -78 11 -19 43 -12 50 10 11 34 25 2 25 -57 0
-52 8 -70 102 -247 13 -24 17 -42 11 -48 -13 -13 -130 22 -257 76 -58 25 -110
45 -116 45 -17 0 -30 38 -30 92 0 109 -72 163 -221 163 -79 0 -91 -3 -160 -37
-113 -58 -117 -62 -155 -197 -62 -219 -66 -319 -20 -452 30 -87 81 -162 169
-249 70 -70 109 -98 453 -322 89 -58 231 -158 316 -222 130 -96 165 -118 209
-127 30 -6 55 -12 56 -13 6 -5 22 -208 28 -341 4 -77 8 -151 10 -165 2 -14 6
-72 10 -130 3 -58 13 -177 20 -265 44 -505 26 -672 -88 -839 -54 -78 -77 -146
-77 -225 0 -81 17 -130 60 -173 42 -43 68 -47 95 -18 18 20 18 21 -12 53 -45
47 -53 69 -53 137 0 74 18 120 69 175 46 50 85 160 105 295 l12 85 50 6 c164
20 329 -68 441 -237 l37 -56 -29 -51 c-15 -29 -55 -95 -88 -147 -78 -124 -89
-146 -85 -171 4 -31 32 -46 52 -30 9 8 47 66 85 130 38 64 87 139 108 166 64
82 115 161 213 335 51 91 94 167 96 169 4 5 40 -35 99 -108 28 -35 77 -84 110
-111 73 -58 272 -180 461 -283 135 -74 186 -90 209 -68 10 10 253 -69 330
-107 68 -33 191 -55 270 -48 38 4 74 11 79 16 17 17 84 11 103 -8 26 -27 49
-33 80 -21 37 14 67 4 81 -25 8 -19 30 -30 98 -52 55 -18 101 -40 127 -61 85
-71 122 -79 442 -90 303 -10 707 -8 1130 7 182 6 488 14 682 17 193 3 355 8
360 12 20 14 72 90 98 141 15 30 29 57 31 59 2 2 26 -17 54 -42 98 -88 219
-140 312 -135 49 3 53 5 56 30 4 32 -13 43 -90 59 -121 25 -267 136 -327 248
-64 121 -93 313 -72 476 30 224 160 493 319 657 54 57 71 68 98 68 39 0 74
-38 74 -80 0 -31 44 -184 89 -310 17 -47 31 -95 31 -106 0 -62 71 -51 89 13
17 60 13 83 -19 120 -22 25 -30 44 -30 72 0 23 -12 62 -30 97 -26 50 -31 74
-36 159 -7 133 -10 142 -43 159 -40 21 -43 36 -25 124 29 137 29 139 0 165
-14 13 -26 32 -26 41 0 22 34 89 55 106 9 7 23 26 31 42 19 36 54 197 47 215
-3 7 -16 13 -29 13 -25 0 -25 4 -8 88 5 23 5 23 22 3 30 -35 58 -12 81 67 23
75 50 117 83 127 19 7 20 12 15 66 -7 59 6 89 36 89 7 0 21 3 32 6 16 4 20 0
21 -21 1 -14 18 -49 38 -78 20 -29 36 -57 36 -64 0 -18 27 -23 47 -8 16 12 17
16 3 38 -8 14 -45 57 -83 97 -37 40 -69 84 -72 98 -12 59 -22 78 -47 90 -37
17 -57 6 -79 -45 -11 -26 -24 -43 -32 -41 -25 9 -57 82 -57 134 0 61 -14 82
-60 86 -31 3 -36 7 -46 43 -7 22 -17 83 -23 136 -7 63 -19 115 -36 150 -32 69
-31 90 2 130 39 46 296 159 443 194 84 20 100 29 100 56 0 58 -122 41 -342
-47 -77 -30 -165 -60 -196 -66 -39 -7 -67 -20 -87 -39 -20 -19 -163 -86 -400
-189 -204 -88 -377 -164 -385 -169 -8 -4 -21 -19 -27 -32 -11 -20 -10 -26 4
-36 9 -7 27 -10 42 -6 21 5 498 202 631 261 25 11 57 22 72 26 25 6 26 4 33
-44 4 -27 17 -65 30 -84 32 -47 42 -88 48 -186 7 -104 12 -118 46 -126 36 -9
61 -33 61 -60 0 -50 -226 -205 -298 -204 -16 1 -69 29 -132 71 -124 83 -377
210 -545 274 -243 92 -515 158 -973 235 -171 29 -366 74 -740 169 -279 71
-543 137 -587 146 -208 45 -385 110 -409 149 -8 11 -19 56 -26 99 -15 101 -48
198 -101 295 -101 187 -99 181 -99 251 0 36 -7 127 -15 201 -46 438 -118 709
-266 997 -88 172 -108 198 -150 198 -55 0 -172 96 -304 249 -123 144 -154 174
-265 259 -41 31 -102 80 -135 108 -33 28 -99 77 -148 110 -70 48 -95 72 -127
123 -67 106 -154 172 -265 200 -71 19 -83 19 -116 1z m11 -205 c-38 -133 -65
-266 -84 -413 -20 -150 -23 -157 -85 -157 l-48 0 12 78 c27 168 99 388 168
512 31 56 58 93 63 87 2 -2 -10 -50 -26 -107z m205 -87 c25 -9 127 -150 179
-246 50 -92 126 -281 152 -374 16 -58 16 -64 0 -87 -23 -36 -58 -41 -143 -23
-94 21 -273 78 -273 87 0 4 6 13 13 19 11 8 13 67 9 301 -4 269 -3 292 13 310
20 22 25 23 50 13z m-999 -2511 l28 -53 -30 -24 c-31 -26 -82 -33 -102 -13
-24 24 -14 73 24 117 20 23 40 39 44 34 4 -4 20 -32 36 -61z m-626 -417 c28
-15 48 -53 70 -141 14 -57 49 -105 95 -131 30 -16 43 -32 52 -60 16 -53 15
-147 -2 -219 -24 -103 -114 -319 -155 -371 l-17 -22 -97 65 c-218 149 -316
316 -303 514 6 83 57 280 80 308 12 15 80 51 117 63 43 13 130 10 160 -6z
m1907 -25 c23 0 74 -56 67 -75 -4 -9 -23 -24 -43 -35 -20 -10 -58 -41 -86 -69
l-50 -52 -1 -69 c0 -56 3 -74 18 -87 30 -27 22 -59 -32 -118 -30 -33 -66 -90
-89 -139 -47 -102 -75 -124 -174 -139 -40 -6 -73 -11 -75 -12 -2 -2 5 -21 14
-44 15 -37 15 -43 1 -65 -26 -39 -129 -85 -175 -79 -52 7 -92 -15 -131 -73
-17 -26 -29 -49 -28 -51 2 -2 18 2 35 8 40 14 92 8 105 -12 5 -9 7 -27 4 -41
-7 -28 -48 -48 -98 -48 -21 0 -45 -15 -85 -51 l-57 -51 -56 6 c-101 12 -94 5
-118 122 -24 119 -35 138 -74 130 -31 -6 -27 -26 -59 327 -11 122 -25 237 -31
255 -13 41 -7 49 26 34 14 -7 39 -12 55 -12 17 0 30 -5 30 -11 0 -18 112 -129
130 -129 9 0 29 14 43 30 30 33 36 34 90 19 54 -15 80 -4 72 30 -5 26 -4 27
42 29 74 3 136 29 246 101 118 79 251 192 328 281 58 68 106 103 127 95 8 -3
20 -5 29 -5z m-1131 -346 c68 -53 132 -87 193 -104 32 -8 41 -15 37 -26 -3 -9
-6 -22 -6 -30 0 -25 -29 -15 -65 25 -20 21 -63 53 -96 71 -63 33 -129 85 -129
101 0 14 4 12 66 -37z m6399 -537 c38 -65 40 -118 11 -207 -14 -41 -25 -73
-26 -69 0 3 -2 57 -5 120 -3 62 -8 133 -11 157 -3 23 -4 42 -1 42 4 0 18 -19
32 -43z m-175 -906 c8 -21 9 -43 1 -87 -6 -32 -11 -59 -11 -61 0 -2 -4 -3 -8
-3 -9 0 -32 102 -32 141 0 48 31 54 50 10z m-1918 -1288 c23 -20 23 -52 0 -79
-27 -34 -57 -45 -102 -38 l-40 7 18 -44 19 -44 59 -3 c53 -3 62 -6 91 -38 27
-28 39 -34 67 -32 42 3 66 -16 66 -52 0 -36 -19 -51 -122 -95 -49 -21 -88 -39
-88 -42 0 -2 21 -13 48 -25 63 -27 82 -46 82 -78 l0 -28 -187 -7 c-104 -4
-273 -4 -378 0 -104 4 -275 10 -380 14 -169 6 -195 10 -233 29 -50 27 -67 57
-58 105 7 39 70 115 119 146 35 21 341 109 473 136 45 9 126 17 180 18 94 2
99 3 102 24 3 17 17 26 68 43 49 17 68 28 79 50 26 50 81 66 117 33z"/>
<path d="M44522 7184 c-27 -19 -28 -53 -2 -104 22 -43 46 -60 82 -60 34 0 48
18 48 62 0 46 -22 84 -61 104 -35 18 -39 18 -67 -2z"/>
<path d="M44692 7178 c-29 -29 7 -96 44 -81 20 7 17 57 -4 76 -22 20 -25 20
-40 5z"/>
<path d="M33245 7116 c-27 -12 -70 -44 -93 -70 -37 -40 -43 -52 -37 -74 9 -37
24 -52 50 -52 22 0 159 83 203 123 27 25 28 58 4 80 -26 23 -68 21 -127 -7z"/>
<path d="M9793 7113 c-7 -2 -13 -14 -13 -26 0 -32 101 -225 176 -337 101 -153
102 -127 -11 -363 -53 -111 -103 -210 -112 -219 -8 -9 -29 -18 -46 -20 -48 -5
-56 -30 -24 -75 l27 -38 -50 -24 c-115 -54 -138 -110 -74 -180 41 -46 88 -61
112 -37 14 13 14 21 4 49 -18 51 -15 65 21 83 17 9 35 21 38 26 19 30 153
-108 327 -335 89 -116 117 -147 136 -147 40 0 39 28 -3 100 -62 104 -102 152
-313 375 -81 85 -84 104 -37 222 24 61 140 296 154 311 13 15 62 -45 169 -206
165 -249 237 -380 306 -560 63 -161 127 -229 163 -171 8 12 1 30 -26 75 -20
32 -50 95 -67 139 -79 202 -214 439 -386 676 -64 89 -84 125 -84 149 0 32 83
183 122 222 33 33 72 23 131 -34 64 -64 112 -144 231 -388 49 -102 94 -188
100 -193 6 -4 19 -5 29 -2 9 3 25 7 35 10 13 4 21 -4 34 -35 9 -23 23 -40 32
-40 9 0 48 16 86 36 39 20 94 44 123 54 39 14 54 25 62 45 25 70 -88 73 -217
7 -44 -23 -85 -42 -91 -42 -7 0 -25 37 -42 83 -38 108 -146 320 -218 429 -115
173 -241 245 -334 188 -18 -10 -49 -45 -69 -77 -21 -32 -47 -73 -58 -90 -45
-70 -55 -61 -192 170 -93 157 -121 198 -133 196 -3 0 -12 -3 -18 -6z"/>
<path d="M44907 7012 c-21 -23 -21 -45 -2 -82 26 -51 71 -64 105 -30 27 27 25
71 -5 104 -29 31 -74 35 -98 8z"/>
<path d="M12405 7001 c-45 -27 -187 -175 -256 -266 -34 -46 -90 -141 -130
-222 -38 -78 -77 -147 -87 -152 -12 -6 -230 -8 -303 -2 -4 1 -14 19 -23 41 -9
23 -23 43 -31 46 -19 8 -148 -41 -200 -75 -39 -26 -57 -63 -38 -82 5 -5 42
-13 83 -18 56 -7 83 -17 117 -40 24 -17 48 -31 53 -31 4 0 23 12 41 28 29 24
40 27 104 26 39 -1 102 -4 141 -8 67 -6 72 -5 110 22 33 25 53 55 112 175 39
79 98 180 131 223 64 85 211 234 231 234 18 0 155 -135 207 -205 61 -80 108
-176 138 -281 32 -111 32 -148 0 -178 -24 -23 -102 -57 -205 -91 -123 -40
-382 -157 -680 -307 -361 -182 -413 -219 -346 -249 22 -10 43 -2 183 73 87 47
185 97 218 112 739 341 783 359 885 360 62 1 61 2 39 -77 -17 -62 -2 -94 59
-122 33 -15 44 -27 52 -55 14 -49 12 -76 -5 -93 -18 -18 -32 -22 -463 -102
-189 -35 -350 -69 -358 -76 -24 -20 -13 -54 18 -57 15 -2 193 26 397 62 203
36 383 66 399 66 16 0 36 -8 44 -17 46 -52 225 -566 242 -693 3 -19 12 -66 21
-105 30 -130 36 -196 25 -280 -18 -132 -37 -446 -31 -505 5 -48 9 -56 33 -64
63 -22 83 44 92 309 3 83 10 183 17 223 9 57 9 98 0 185 -23 209 -58 338 -199
730 -61 171 -82 241 -74 249 6 6 140 37 299 68 293 59 342 72 355 93 10 16
-20 47 -46 47 -11 0 -146 -25 -300 -56 -153 -30 -292 -54 -309 -52 -25 2 -32
10 -44 42 -16 48 -37 72 -68 80 -21 5 -23 10 -18 40 7 44 -11 98 -47 136 -15
16 -24 33 -19 36 5 3 14 25 20 50 10 38 20 50 63 79 28 18 107 83 176 144 69
61 146 126 173 144 56 38 61 70 12 75 -41 3 -66 -14 -258 -182 -208 -183 -205
-183 -247 -16 -12 47 -39 121 -60 166 -87 180 -307 414 -389 414 -15 0 -39 -8
-56 -19z"/>
<path d="M32703 6980 c-65 -39 -82 -104 -32 -127 78 -37 182 75 121 130 -24
22 -50 21 -89 -3z"/>
<path d="M32455 6811 c-47 -12 -93 -39 -106 -62 -15 -29 3 -67 36 -75 36 -9
226 15 253 32 27 17 29 55 4 77 -32 29 -124 43 -187 28z"/>
<path d="M9341 6687 c-26 -26 -2 -84 86 -210 114 -163 253 -317 284 -317 23 0
36 27 23 45 -5 7 -41 55 -80 106 -184 241 -217 287 -242 331 -27 48 -52 64
-71 45z"/>
<path d="M45954 6615 c-27 -18 -46 -65 -42 -100 5 -41 57 -66 132 -63 94 5
102 50 23 133 -47 48 -77 56 -113 30z"/>
<path d="M44279 6592 c-96 -62 -134 -136 -89 -177 29 -26 84 -21 158 16 75 37
97 65 89 115 -13 79 -77 97 -158 46z"/>
<path d="M33536 6578 c-31 -49 -29 -158 8 -448 137 -1050 159 -1241 186 -1600
23 -305 27 -320 84 -320 45 0 57 18 65 94 13 120 -35 617 -119 1256 -22 168
-58 451 -81 630 -44 356 -58 410 -103 410 -15 0 -31 -9 -40 -22z"/>
<path d="M36653 6561 c-68 -23 -143 -84 -143 -116 0 -43 31 -49 97 -19 32 14
92 39 133 54 80 30 94 48 64 81 -22 24 -81 25 -151 0z"/>
<path d="M37946 6498 c-9 -12 -16 -27 -16 -32 0 -5 -21 -40 -47 -77 -39 -57
-44 -71 -33 -84 7 -8 21 -15 31 -15 40 0 149 128 149 175 0 25 -29 55 -53 55
-9 0 -23 -10 -31 -22z"/>
<path d="M46785 6434 c-403 -99 -412 -100 -461 -22 -19 29 -31 38 -47 36 -19
-3 -23 -11 -27 -68 l-5 -65 -70 -17 c-38 -9 -124 -29 -190 -44 -159 -37 -166
-44 -163 -157 5 -140 -13 -145 -205 -57 -73 33 -140 60 -149 60 -9 0 -36 -26
-60 -57 -79 -105 -165 -144 -267 -122 -69 15 -78 29 -44 69 l27 32 -51 49
c-70 67 -94 66 -122 -3 -21 -51 -26 -55 -144 -125 -156 -92 -196 -109 -331
-143 -131 -32 -212 -65 -320 -129 -98 -57 -159 -112 -150 -135 11 -29 55 -17
136 35 101 65 159 90 294 129 176 51 330 110 420 162 46 26 88 48 92 48 5 0
21 -13 36 -29 45 -47 73 -54 203 -49 137 4 159 13 245 94 65 62 80 65 158 28
83 -39 184 -74 214 -74 60 0 106 82 106 189 0 67 1 71 28 84 15 8 41 17 57 20
17 3 83 17 147 31 123 25 154 25 163 -3 12 -39 35 -193 30 -202 -9 -14 -28
-11 -125 16 -106 31 -225 32 -244 3 -18 -30 12 -48 97 -57 87 -10 227 -55 257
-83 18 -16 20 -32 20 -122 0 -111 9 -134 49 -121 23 7 25 14 40 120 14 93 22
99 131 89 177 -17 219 -11 220 34 0 20 -35 29 -190 47 -80 9 -146 18 -147 19
-5 4 -43 259 -43 284 0 33 33 45 323 112 330 76 329 76 355 101 18 16 21 24
11 35 -19 23 -72 16 -304 -42z"/>
<path d="M45390 6339 c-79 -22 -102 -48 -79 -91 27 -51 78 -63 122 -28 l25 20
31 -31 c28 -28 36 -30 69 -24 63 12 102 33 112 60 15 41 -6 77 -55 91 -48 15
-176 16 -225 3z"/>
<path d="M44545 6305 c-132 -13 -280 -30 -330 -39 -102 -17 -263 -62 -282 -78
-17 -14 -17 -55 1 -61 16 -6 17 -6 156 27 134 33 287 52 520 66 202 12 251 21
281 51 15 15 17 24 9 39 -14 25 -40 25 -355 -5z"/>
<path d="M19087 6130 c-62 -24 -116 -65 -128 -97 -8 -21 -6 -30 10 -47 10 -12
26 -46 34 -76 22 -75 72 -125 127 -125 54 0 85 31 85 85 0 33 -7 47 -43 83
-46 47 -52 69 -24 89 43 30 49 78 11 98 -21 12 -14 13 -72 -10z"/>
<path d="M20528 5803 c-36 -41 -30 -95 12 -108 28 -9 56 10 69 46 14 41 14 45
-5 63 -21 21 -57 20 -76 -1z"/>
<path d="M18807 5653 c-14 -14 -6 -43 16 -57 12 -8 65 -29 117 -47 52 -18 185
-70 295 -116 110 -47 354 -142 543 -213 282 -106 348 -127 368 -120 13 6 27
17 30 25 14 34 -6 44 -359 176 -120 44 -312 119 -425 166 -345 143 -560 211
-585 186z"/>
<path d="M47370 5620 c-88 -14 -210 -57 -279 -97 -35 -21 -109 -80 -165 -131
-55 -52 -127 -111 -158 -133 -59 -41 -113 -104 -193 -228 -128 -198 -221 -480
-256 -775 -18 -153 -6 -579 19 -678 10 -43 25 -84 32 -93 16 -19 59 -19 66 0
5 11 21 15 59 15 74 0 103 13 151 66 l41 46 31 -16 c50 -26 99 -21 133 13 24
25 29 38 30 83 1 32 8 -9 20 -107 34 -291 78 -463 219 -860 45 -126 93 -273
107 -325 31 -119 41 -280 23 -387 -33 -209 -151 -413 -313 -543 -76 -61 -288
-167 -417 -209 -323 -103 -420 -106 -447 -16 -22 76 -94 488 -86 496 4 4 18
10 30 13 20 6 22 2 29 -40 4 -26 21 -79 39 -118 18 -39 40 -102 50 -141 23
-90 38 -118 72 -141 39 -26 126 -24 184 4 72 35 77 52 81 254 3 197 2 202 -65
212 l-42 7 80 43 80 42 5 -50 c7 -72 73 -157 136 -175 50 -14 87 5 179 91 108
102 145 150 145 193 0 55 -31 82 -128 111 -48 14 -96 29 -108 32 -21 7 -21 7
-2 50 16 36 21 41 38 32 36 -19 77 -11 119 24 23 19 58 40 79 46 61 19 80 31
92 61 22 52 -12 181 -58 223 -18 15 -33 17 -109 13 -48 -2 -97 -8 -109 -12
-19 -6 -22 -2 -28 49 -7 63 -41 174 -80 259 l-26 57 43 0 c28 0 63 -11 104
-32 54 -27 66 -30 88 -20 14 6 34 26 46 44 33 54 21 107 -63 271 -64 125 -77
144 -110 160 -32 16 -44 17 -72 7 -44 -14 -81 -43 -116 -91 -27 -38 -28 -38
-45 -19 -34 37 -75 19 -75 -33 0 -53 29 -144 105 -326 99 -237 109 -280 109
-461 0 -135 -2 -149 -27 -203 -32 -71 -147 -187 -236 -239 -82 -47 -170 -67
-312 -70 -174 -4 -207 22 -216 164 -6 96 6 169 42 245 30 63 30 63 5 106 l-21
35 31 243 c16 134 34 271 40 304 18 109 7 228 -24 247 -21 14 -55 8 -65 -10
-5 -10 -11 -55 -12 -100 -1 -45 -6 -82 -10 -82 -5 0 -9 4 -9 10 0 5 -11 17
-24 25 -17 12 -30 13 -49 6 -49 -19 -59 -50 -67 -201 -6 -135 -7 -141 -40
-192 -38 -61 -42 -111 -16 -199 22 -74 8 -95 -71 -105 -69 -8 -107 -25 -129
-58 -14 -22 -14 -27 1 -55 8 -17 20 -31 25 -31 6 0 19 -9 30 -20 23 -23 18
-41 -31 -98 -37 -42 -36 -63 1 -105 54 -62 34 -97 -57 -97 -57 0 -73 -12 -73
-56 0 -35 37 -74 70 -74 32 0 67 -37 74 -80 7 -48 -9 -123 -33 -143 -9 -8 -49
-19 -89 -25 -85 -12 -102 -23 -102 -66 0 -48 15 -56 100 -56 l77 0 11 -36 c8
-27 7 -43 -3 -68 -23 -54 -39 -62 -90 -44 -40 15 -45 15 -74 -3 -20 -12 -31
-27 -31 -41 0 -32 8 -40 65 -72 73 -42 95 -65 95 -100 0 -48 -12 -57 -84 -66
-138 -17 -205 -117 -242 -363 -19 -123 -12 -200 23 -279 14 -31 22 -64 19 -75
-3 -11 0 -27 7 -38 20 -26 150 -32 264 -12 49 9 105 19 125 22 26 4 46 16 66
41 l29 35 119 2 c140 3 177 17 264 97 l54 50 9 168 c4 92 5 217 2 278 -8 160
3 177 127 189 87 9 306 67 430 113 395 149 578 340 680 710 18 64 22 105 22
247 1 155 -2 179 -27 278 -16 60 -62 201 -103 314 -91 249 -143 429 -183 628
-48 241 -56 334 -56 650 0 265 2 299 23 395 41 184 116 326 228 430 49 46 97
66 238 99 91 22 216 91 282 156 69 68 94 125 94 212 0 66 -22 112 -90 186 -72
79 -153 118 -256 122 -44 2 -104 0 -134 -5z m-480 -572 c19 -16 33 -18 81 -12
70 8 93 -4 139 -71 l31 -45 -56 -71 c-164 -211 -225 -470 -212 -909 3 -107 2
-183 -3 -168 -16 52 -53 107 -82 119 -58 24 -123 -3 -155 -65 l-15 -28 -24 36
c-35 51 -76 70 -136 62 l-48 -7 0 122 0 122 171 -4 172 -4 21 28 c18 24 21 45
24 135 4 136 -8 159 -106 205 -80 38 -133 40 -186 8 -43 -27 -45 -21 -19 70
15 53 19 60 37 54 12 -4 44 -9 71 -12 42 -4 56 -1 86 20 20 13 52 30 72 36 48
16 83 60 103 128 23 78 14 140 -23 174 l-30 26 17 59 c27 98 32 106 40 55 4
-28 15 -51 30 -63z m-1041 -3270 c36 -114 95 -377 115 -518 26 -177 36 -375
31 -580 -8 -275 -3 -256 -78 -269 -106 -17 -184 -24 -220 -17 l-33 6 -12 85
c-11 87 -28 130 -69 179 -26 32 -27 58 -4 141 6 22 53 264 105 538 52 274 100
504 106 512 7 8 16 15 21 15 4 0 21 -42 38 -92z"/>
<path d="M46300 5545 c-7 -8 -10 -24 -7 -36 3 -11 -1 -43 -9 -70 -29 -97 32
-125 78 -35 11 22 21 58 21 78 0 62 -52 101 -83 63z"/>
<path d="M11899 5534 c-35 -43 60 -75 101 -34 17 17 19 24 9 36 -16 20 -93 18
-110 -2z"/>
<path d="M9621 5454 c-42 -30 -9 -94 49 -94 42 0 59 33 33 68 -26 34 -56 44
-82 26z"/>
<path d="M15315 5305 c-179 -18 -358 -49 -517 -90 -155 -39 -252 -74 -408
-145 -139 -63 -275 -119 -536 -220 -226 -88 -304 -124 -304 -143 0 -7 6 -22
14 -32 13 -17 18 -18 87 -6 139 25 244 62 414 145 204 101 579 253 729 296
268 77 580 115 946 113 255 -1 522 -37 727 -98 l52 -15 -13 -33 c-7 -17 -16
-56 -19 -85 -8 -65 14 -95 66 -90 31 3 32 2 38 -46 5 -46 26 -76 54 -76 41 0
80 80 73 151 -3 30 -7 34 -35 37 -18 2 -41 -2 -53 -8 -18 -10 -20 -8 -20 27 1
21 7 49 15 63 31 54 10 119 -34 107 -16 -4 -21 2 -26 24 -4 19 -14 31 -28 33
-12 3 -80 18 -152 35 -225 52 -324 62 -645 66 -202 3 -336 0 -425 -10z"/>
<path d="M46107 5239 c-83 -70 -98 -87 -95 -108 3 -24 7 -26 53 -26 28 0 56
-4 63 -8 21 -14 52 2 52 28 0 36 17 74 51 113 36 41 36 76 -1 80 -19 2 -49
-17 -123 -79z"/>
<path d="M23965 5290 c-55 -27 -85 -74 -85 -132 0 -58 55 -144 143 -223 83
-75 155 -110 204 -100 47 8 98 46 119 87 19 37 20 97 3 130 -51 97 -250 258
-319 258 -14 0 -43 -9 -65 -20z"/>
<path d="M11890 5089 c-73 -10 -202 -52 -270 -88 -50 -26 -55 -31 -55 -62 0
-33 1 -34 80 -62 l80 -28 90 22 c138 34 222 67 250 101 54 63 15 129 -74 127
-25 -1 -71 -5 -101 -10z"/>
<path d="M45836 5019 c-36 -44 -66 -89 -66 -99 0 -10 14 -28 30 -40 l30 -21 0
-147 c0 -209 27 -378 102 -651 36 -128 63 -171 109 -171 39 0 46 32 20 91 -11
25 -40 127 -65 226 -59 243 -73 388 -57 625 6 96 15 188 20 205 11 37 -3 63
-33 63 -18 0 -41 -22 -90 -81z"/>
<path d="M10137 5006 c-50 -14 -93 -40 -111 -68 -16 -26 9 -67 51 -85 51 -21
244 -15 290 10 126 67 -69 188 -230 143z"/>
<path d="M33348 5010 c-23 -14 -97 -245 -157 -490 -58 -236 -117 -417 -197
-598 -100 -225 -122 -312 -88 -346 39 -40 103 4 124 84 6 25 44 115 84 200 41
85 87 198 104 250 45 138 222 820 222 855 0 21 -36 55 -57 55 -10 0 -26 -5
-35 -10z"/>
<path d="M20530 4954 c-30 -24 -63 -53 -72 -65 -20 -24 -24 -80 -7 -110 8 -17
6 -25 -15 -46 -29 -29 -30 -34 -15 -78 18 -48 5 -79 -66 -153 -70 -74 -135
-112 -225 -131 -68 -14 -181 -50 -197 -64 -18 -13 -16 -52 3 -67 12 -11 32
-10 112 5 306 56 466 176 489 365 5 42 12 55 49 89 49 45 55 70 24 116 -25 37
-25 53 -1 79 21 24 33 66 23 82 -18 28 -48 22 -102 -22z"/>
<path d="M26668 4790 c-45 -48 -50 -89 -17 -144 l21 -36 -26 -46 c-14 -26 -26
-55 -26 -66 0 -24 28 -80 100 -198 32 -52 66 -114 75 -137 19 -48 43 -55 75
-23 40 40 23 88 -92 272 -49 77 -97 192 -86 203 2 2 41 -8 86 -22 89 -28 125
-26 143 8 15 29 -3 69 -31 69 -12 0 -32 11 -46 25 -20 21 -23 31 -18 63 5 34
3 42 -17 56 -13 9 -41 16 -63 16 -33 0 -45 -7 -78 -40z"/>
<path d="M12485 4765 c-49 -8 -207 -44 -350 -81 -282 -73 -540 -134 -567 -134
-10 0 -23 -10 -29 -22 -10 -19 -8 -24 12 -41 35 -28 84 -20 474 77 372 93 465
113 558 123 87 8 107 17 107 47 0 48 -43 54 -205 31z"/>
<path d="M16757 4738 c-23 -17 -29 -51 -21 -122 7 -65 29 -96 68 -96 42 0 48
20 38 116 -8 65 -15 91 -28 101 -22 16 -36 16 -57 1z"/>
<path d="M24160 4682 c-104 -52 -109 -216 -8 -268 102 -53 213 16 213 131 0
60 -20 95 -75 133 -40 26 -83 28 -130 4z"/>
<path d="M44487 4693 c-4 -3 -7 -17 -7 -30 0 -45 114 -90 365 -144 204 -44
199 -43 218 -24 23 22 21 32 -8 59 -19 17 -61 30 -187 56 -90 18 -203 46 -251
61 -90 29 -118 34 -130 22z"/>
<path d="M10855 4659 c-32 -5 -56 -16 -67 -30 -22 -27 -22 -31 1 -61 41 -52
156 -61 306 -25 68 17 91 27 93 40 7 33 -7 63 -33 75 -29 14 -222 14 -300 1z"/>
<path d="M45296 4623 c-16 -41 74 -102 109 -73 23 19 18 46 -11 69 -33 26 -89
28 -98 4z"/>
<path d="M11356 4601 c-17 -18 -17 -22 4 -68 30 -68 35 -121 16 -167 -20 -49
-20 -53 3 -66 28 -15 67 3 86 39 36 70 3 223 -56 265 -30 20 -32 20 -53 -3z"/>
<path d="M45127 4603 c-15 -14 -6 -43 19 -62 34 -27 80 -27 94 -1 16 29 -27
70 -73 70 -18 0 -37 -3 -40 -7z"/>
<path d="M10552 4573 c-16 -6 -65 -103 -82 -160 -11 -36 -11 -49 4 -87 30 -79
96 -116 142 -81 25 19 68 19 84 0 21 -25 72 -28 126 -7 78 31 134 36 197 18
94 -27 157 -15 157 29 0 19 -10 24 -72 35 -29 6 -75 21 -101 35 -59 30 -94 32
-122 5 -18 -16 -117 -58 -207 -87 -83 -26 -138 99 -87 198 25 51 23 103 -6
106 -11 1 -26 -1 -33 -4z"/>
<path d="M11713 4243 c-7 -2 -13 -15 -13 -28 0 -28 27 -39 205 -86 66 -17 293
-78 505 -136 501 -136 548 -145 570 -104 15 29 -17 49 -131 81 -321 89 -1068
280 -1094 279 -16 0 -36 -3 -42 -6z"/>
<path d="M43390 4150 c-45 -11 -70 -43 -70 -90 0 -52 8 -68 39 -84 76 -40 180
-27 207 26 29 56 -12 127 -87 148 -38 11 -40 11 -89 0z"/>
<path d="M29447 4132 c-24 -26 -22 -119 3 -212 12 -41 50 -162 86 -268 102
-306 150 -489 223 -847 43 -212 63 -275 300 -975 116 -344 220 -665 230 -715
35 -159 44 -293 35 -505 -11 -278 -9 -314 24 -380 36 -72 101 -113 205 -128
112 -17 395 -35 459 -29 73 6 150 48 193 104 125 164 216 662 216 1188 0 223
-1 232 -26 305 -94 264 -70 518 89 986 55 162 94 315 140 553 39 201 41 223
25 270 -20 58 -76 65 -103 13 -8 -15 -24 -81 -36 -147 -42 -239 -103 -473
-199 -770 -87 -267 -96 -312 -96 -500 0 -88 7 -240 14 -337 l15 -178 -22 -23
c-32 -34 -27 -53 18 -83 22 -15 40 -29 41 -33 6 -53 3 -125 -13 -326 -37 -476
-68 -648 -135 -749 -24 -37 -26 -38 -39 -21 -8 10 -14 42 -14 69 0 82 -32 125
-83 112 -30 -7 -40 -33 -57 -160 -16 -117 -29 -130 -116 -123 -35 2 -70 10
-78 16 -10 8 -15 51 -18 164 -5 181 -14 210 -69 215 -55 5 -61 -10 -66 -165
-4 -146 -15 -186 -49 -191 -31 -4 -74 37 -82 78 -4 19 -4 125 1 235 10 240 -3
434 -39 585 -22 94 -165 528 -373 1133 -76 221 -146 478 -181 667 -45 244
-105 454 -212 744 -38 104 -80 236 -94 295 -14 58 -32 116 -40 129 -18 27 -55
29 -77 4z"/>
<path d="M17159 4123 c-20 -24 -14 -148 12 -252 35 -141 113 -323 144 -334 8
-4 27 -1 40 5 23 10 30 8 68 -29 56 -54 81 -67 107 -53 28 15 26 62 -6 99 -25
30 -76 51 -125 51 -25 0 -29 8 -73 133 -53 149 -86 274 -86 329 0 59 -49 90
-81 51z"/>
<path d="M33837 4109 c-46 -27 -55 -99 -17 -134 36 -33 100 14 100 73 0 64
-34 89 -83 61z"/>
<path d="M13319 3934 c-17 -21 -14 -117 11 -301 11 -81 20 -155 20 -165 0 -9
-16 -35 -35 -58 -56 -67 -58 -148 -4 -165 31 -10 56 22 65 81 3 25 17 57 29
72 37 45 55 89 55 134 0 62 -56 350 -74 387 -18 34 -46 40 -67 15z"/>
<path d="M31703 3925 c-25 -18 -53 -125 -53 -205 0 -41 5 -56 25 -75 30 -31
50 -32 70 -1 23 34 33 76 41 165 6 76 5 80 -19 105 -30 30 -35 31 -64 11z"/>
<path d="M42588 3829 c-45 -12 -85 -47 -133 -113 -70 -98 -97 -166 -106 -267
-20 -218 -84 -365 -188 -430 -67 -43 -135 -60 -261 -63 -124 -4 -148 -14 -183
-75 -28 -46 -34 -141 -13 -195 43 -112 181 -167 293 -116 58 26 425 396 473
475 33 55 35 66 40 169 8 149 25 178 142 247 91 53 112 85 116 174 2 57 -2 78
-21 114 -37 72 -91 99 -159 80z"/>
<path d="M46020 3760 c-11 -7 -15 -30 -15 -88 0 -85 17 -122 56 -122 31 0 42
37 36 117 -7 95 -30 123 -77 93z"/>
<path d="M25975 3572 c-23 -11 -46 -31 -53 -46 -27 -61 -10 -229 42 -405 33
-112 71 -152 148 -158 94 -7 158 55 158 155 0 66 -38 340 -51 363 -5 10 -9 27
-9 38 0 52 -160 88 -235 53z"/>
<path d="M32602 3520 c-33 -36 -122 -205 -122 -233 0 -28 32 -57 64 -57 48 0
129 131 143 231 4 30 1 39 -22 57 -34 27 -39 27 -63 2z"/>
<path d="M46042 3477 c-26 -27 -29 -72 -6 -81 50 -19 84 1 84 49 0 56 -40 72
-78 32z"/>
<path d="M38621 3441 c-9 -6 -12 -19 -7 -43 9 -51 33 -80 63 -76 33 4 48 28
39 62 -13 51 -59 79 -95 57z"/>
<path d="M44929 3389 c-17 -33 -23 -132 -10 -171 12 -36 38 -52 61 -38 17 11
29 86 23 145 -8 76 -49 110 -74 64z"/>
<path d="M17378 3189 c-22 -12 -23 -49 -3 -126 27 -103 16 -324 -26 -551 -15
-78 -26 -115 -38 -121 -9 -5 -52 -19 -97 -31 -60 -16 -93 -31 -127 -60 -46
-37 -49 -38 -154 -45 -136 -10 -223 -2 -296 25 -65 25 -81 19 -75 -26 2 -22
13 -33 53 -53 49 -26 53 -26 270 -26 302 1 342 11 389 96 10 19 21 29 23 23 2
-7 -5 -65 -16 -130 -11 -66 -29 -186 -41 -269 -12 -82 -32 -204 -46 -270 -46
-229 -198 -753 -223 -772 -9 -6 -28 -14 -43 -17 -39 -8 -104 -75 -117 -121
-21 -77 -14 -166 20 -246 48 -115 32 -108 287 -122 167 -8 227 -8 246 1 17 7
37 35 58 79 l33 68 50 7 c28 3 144 14 259 23 385 30 506 52 506 94 0 35 -37
51 -100 44 -32 -3 -60 -2 -63 3 -8 14 37 148 62 182 12 17 97 89 189 161 218
169 337 269 491 412 l126 117 26 -107 c14 -58 33 -121 43 -139 10 -19 76 -104
148 -190 172 -207 253 -315 286 -382 23 -47 27 -67 27 -140 0 -76 -4 -92 -32
-145 -40 -77 -73 -186 -73 -239 0 -46 26 -109 66 -161 l26 -35 424 0 424 0 0
34 c0 19 7 39 17 47 27 23 43 75 43 144 0 76 -32 349 -56 475 -22 119 -30 379
-14 493 7 51 25 135 39 188 23 80 38 111 85 177 36 50 69 84 85 90 19 6 95 -5
276 -40 292 -56 319 -58 347 -30 26 26 17 56 -25 75 -26 12 -331 75 -498 102
-25 4 -47 18 -72 46 -27 30 -42 39 -56 34 -13 -4 -27 1 -39 13 -17 17 -20 41
-27 171 -4 84 -10 164 -14 179 -10 38 -52 42 -86 8 -25 -25 -25 -27 -25 -190
0 -200 -17 -333 -76 -610 -41 -188 -45 -224 -45 -334 1 -172 18 -385 41 -521
10 -64 24 -177 29 -251 6 -74 17 -157 25 -185 17 -55 14 -62 -31 -71 -51 -10
-77 24 -92 121 -14 89 -23 105 -56 105 -34 0 -44 -19 -56 -106 -13 -97 -27
-114 -88 -114 -58 0 -83 17 -121 83 -32 56 -39 118 -19 175 27 78 -67 108
-105 34 -29 -55 -35 -107 -21 -179 16 -86 9 -97 -57 -90 -120 15 -155 89 -101
217 20 47 83 326 83 366 0 46 -21 99 -73 184 -44 72 -83 123 -252 325 -91 110
-169 257 -220 415 -64 196 -205 580 -237 644 -52 105 -93 131 -138 86 -28 -28
-26 -43 25 -150 25 -52 45 -105 45 -117 0 -35 -34 -63 -77 -63 -55 0 -108 -30
-218 -127 -56 -49 -131 -112 -167 -141 -118 -93 -196 -196 -284 -374 -104
-209 -159 -277 -470 -581 -110 -108 -209 -213 -220 -234 -41 -82 -87 -107
-158 -83 -74 24 -84 83 -33 186 31 64 32 66 13 80 -32 23 -65 17 -101 -19 -27
-27 -35 -45 -45 -104 -10 -65 -14 -72 -33 -70 -28 3 -37 -40 -12 -49 13 -6 14
-8 3 -15 -33 -21 -44 -10 -56 61 -21 126 -12 180 42 229 21 20 26 33 26 73 0
47 0 48 33 48 17 0 37 4 44 8 37 23 147 329 207 572 42 170 120 594 141 764
14 109 20 128 47 138 4 2 9 60 12 129 2 71 11 158 21 201 l18 76 50 -24 c35
-16 56 -20 68 -14 39 22 30 56 -52 186 -46 72 -69 133 -69 183 -1 40 -9 53
-58 94 -36 29 -48 32 -74 16z m1486 -1351 c13 -29 36 -89 51 -132 l29 -79
-135 -131 c-179 -176 -504 -434 -774 -615 -259 -175 -296 -195 -336 -186 -28
6 -27 8 105 138 163 162 226 245 306 407 34 69 84 157 111 196 79 113 364 374
438 400 20 6 50 10 67 7 23 -4 37 1 60 21 16 14 35 26 42 26 7 0 23 -24 36
-52z m-899 -1138 c-20 -22 -35 -26 -35 -10 0 6 10 15 23 20 32 13 32 12 12
-10z"/>
<path d="M38831 3171 c-64 -69 -80 -153 -30 -159 21 -2 35 6 63 40 42 49 53
80 40 117 -13 37 -40 38 -73 2z"/>
<path d="M32071 3099 c-14 -5 -43 -25 -65 -43 -111 -91 -125 -117 -86 -156 41
-41 76 -26 203 84 43 39 57 57 57 78 0 43 -51 60 -109 37z"/>
<path d="M45457 3078 c-10 -8 -25 -49 -38 -103 -30 -133 -79 -281 -103 -318
-14 -20 -35 -35 -59 -42 -54 -15 -78 -44 -84 -101 -4 -32 -13 -58 -29 -74 -31
-33 -54 -91 -54 -135 0 -28 5 -38 25 -47 37 -17 61 11 79 88 18 84 36 110 79
118 49 9 82 47 133 151 69 142 132 426 103 462 -14 16 -30 17 -52 1z"/>
<path d="M37642 2964 c-43 -30 -19 -114 32 -114 10 0 33 15 52 34 34 34 36 51
11 84 -13 17 -68 15 -95 -4z"/>
<path d="M38971 2831 c-25 -16 -15 -64 29 -136 62 -101 189 -365 229 -475 84
-232 91 -247 144 -307 110 -123 146 -195 198 -397 21 -83 52 -196 69 -251 16
-55 37 -135 45 -179 14 -75 21 -196 10 -196 -33 0 -213 -48 -255 -68 -113 -53
-198 -174 -207 -297 -5 -62 -5 -65 20 -76 14 -6 32 -9 40 -6 7 3 29 47 47 98
56 157 136 219 287 222 68 1 77 -1 94 -22 10 -13 24 -42 29 -64 6 -23 21 -65
32 -93 38 -93 5 -126 -127 -128 l-60 -1 -20 83 c-39 162 -94 120 -105 -81 0
-4 -16 -23 -36 -41 -30 -27 -36 -38 -30 -59 8 -34 31 -40 112 -27 145 23 385
40 433 29 53 -11 62 -16 77 -44 9 -17 26 -21 100 -28 109 -9 207 2 389 47 109
27 142 39 166 62 38 36 40 84 4 119 -30 31 -41 31 -89 -1 -35 -24 -39 -25 -54
-10 -13 13 -18 42 -21 131 -2 75 1 120 8 129 9 10 1 13 -38 15 -77 2 -81 -6
-81 -168 0 -123 -2 -141 -20 -163 -22 -29 -85 -48 -159 -48 -63 0 -78 19 -92
117 -9 60 -19 110 -35 166 -5 14 -14 17 -42 15 l-37 -3 -3 -158 c-2 -118 -6
-157 -15 -154 -16 5 -85 145 -114 232 -14 39 -33 139 -44 223 -10 84 -30 204
-43 266 -45 208 -164 654 -187 698 -12 23 -43 66 -70 94 -26 29 -66 79 -88
113 -39 61 -55 99 -127 296 -49 135 -210 450 -255 497 -36 39 -76 49 -108 29z"/>
<path d="M13186 2804 c-20 -19 -20 -38 -1 -57 20 -20 54 -10 67 19 20 44 -31
73 -66 38z"/>
<path d="M14270 2795 c-11 -13 -11 -26 -3 -63 40 -177 84 -393 98 -482 26
-173 30 -386 10 -525 -32 -225 -32 -215 9 -264 32 -39 36 -49 36 -102 0 -32
-3 -59 -7 -59 -5 0 -48 35 -98 76 -161 135 -212 162 -229 118 -10 -25 4 -41
112 -131 135 -111 398 -372 412 -408 15 -40 12 -194 -5 -253 -19 -64 -64 -123
-139 -184 -117 -94 -243 -144 -436 -173 -161 -24 -877 -38 -1520 -30 -673 9
-611 9 -701 0 -75 -8 -76 -7 -110 23 -30 27 -33 35 -31 78 2 59 47 156 92 199
25 24 43 31 87 35 70 6 91 30 54 61 -28 23 -87 25 -134 5 -74 -31 -156 -155
-177 -267 -15 -83 -32 -92 -155 -84 -55 4 -108 11 -117 16 -69 36 18 186 164
282 60 40 88 74 88 106 0 23 -36 37 -70 28 -17 -4 -18 -2 -9 14 32 61 209 139
349 154 72 8 93 16 130 51 24 22 32 23 120 20 54 -2 127 -13 170 -25 41 -11
93 -21 115 -22 51 -1 249 12 254 17 3 2 0 17 -5 32 -9 26 -12 27 -105 34 -52
4 -153 19 -225 34 -179 39 -297 39 -377 2 -32 -15 -108 -41 -170 -58 -227 -63
-338 -142 -404 -289 -53 -118 -54 -119 -89 -136 -28 -13 -36 -26 -52 -78 -11
-34 -23 -77 -27 -94 -11 -55 -34 -63 -171 -63 -67 0 -129 3 -138 6 -9 3 -25
21 -36 40 -17 26 -19 38 -11 53 6 11 11 31 11 46 0 93 -258 410 -381 468 -89
42 -140 50 -274 42 -139 -8 -258 -29 -511 -90 -99 -25 -213 -51 -254 -60 -111
-23 -142 -62 -74 -91 26 -11 52 -14 88 -9 55 7 350 78 506 121 82 23 116 27
250 28 l155 1 66 -33 c47 -23 86 -53 135 -105 76 -80 254 -318 254 -339 0 -7
-15 -31 -34 -53 -33 -39 -35 -40 -113 -43 -96 -5 -113 6 -113 73 0 82 -22 200
-47 257 -30 66 -93 130 -158 159 -25 11 -80 25 -123 31 -92 14 -138 2 -148
-38 -12 -46 -2 -51 104 -56 90 -3 104 -7 148 -34 30 -18 58 -46 72 -71 29 -53
52 -159 52 -244 0 -99 -6 -103 -185 -103 -116 -1 -147 2 -158 14 -8 8 -22 56
-31 105 -28 155 -85 229 -171 223 -35 -3 -40 -6 -43 -29 -2 -20 5 -31 37 -52
44 -29 75 -80 84 -140 12 -76 -14 -98 -131 -113 -54 -7 -106 -34 -126 -66 -8
-14 -7 -22 6 -34 16 -16 23 -16 115 1 85 16 109 17 193 7 129 -16 329 -15 480
3 381 45 676 42 854 -10 62 -18 110 -25 171 -25 54 0 99 -6 122 -15 47 -20 58
-19 110 6 43 21 47 21 251 8 448 -28 1766 -9 2502 36 607 38 1531 114 1750
145 86 12 164 18 192 14 26 -3 56 -3 67 1 29 9 26 43 -4 57 -19 8 -22 14 -13
20 22 13 145 9 194 -8 30 -10 50 -12 56 -6 17 17 4 45 -30 65 -32 19 -34 19
-67 1 l-35 -18 -62 32 c-75 38 -97 40 -135 8 -45 -38 -75 -41 -127 -16 -58 30
-81 22 -73 -25 5 -32 4 -35 -26 -40 -56 -9 -680 -64 -1022 -90 -603 -45 -675
-49 -687 -37 -7 7 -10 13 -7 15 2 2 31 24 64 49 86 65 142 130 178 206 28 60
32 77 32 157 0 100 -10 127 -68 189 -19 20 -46 53 -59 73 -14 21 -53 68 -87
106 -33 37 -61 73 -61 81 0 7 7 27 16 45 26 52 21 110 -16 186 l-33 67 9 107
c5 58 9 198 8 311 0 175 -4 228 -27 361 -28 161 -89 414 -110 458 -15 31 -39
38 -57 16z"/>
<path d="M17745 2736 c-26 -40 6 -148 63 -208 30 -33 52 -35 76 -9 17 19 16
24 -28 118 -59 124 -81 144 -111 99z"/>
<path d="M37546 2728 c-20 -32 -51 -169 -76 -333 -60 -390 -191 -1110 -295
-1615 -40 -194 -48 -211 -120 -229 -57 -14 -64 -37 -32 -104 40 -81 42 -100
15 -131 -17 -20 -42 -30 -99 -43 -89 -19 -121 -13 -159 28 -27 30 -60 112 -60
151 0 10 -7 32 -15 48 -12 24 -22 30 -48 30 -47 0 -57 -15 -57 -85 0 -85 -32
-112 -67 -58 -14 21 -19 55 -23 153 l-5 125 -28 3 c-41 5 -53 -10 -84 -104
l-27 -84 -178 0 c-131 0 -188 -4 -213 -14 -35 -15 -55 -42 -55 -74 0 -41 17
-43 219 -28 106 9 196 18 201 21 6 3 43 -25 83 -63 184 -174 340 -223 552
-173 50 12 126 29 169 37 109 21 155 41 162 70 10 38 -2 53 -61 79 -62 28 -71
52 -30 79 42 27 52 63 58 191 3 97 13 152 46 285 57 225 141 647 196 985 131
808 134 828 119 853 -10 15 -24 22 -44 22 -20 0 -34 -7 -44 -22z"/>
<path d="M9927 2623 c-9 -9 -7 -234 2 -302 9 -61 28 -81 75 -81 17 0 36 -4 41
-8 6 -4 40 -52 77 -107 36 -55 82 -118 101 -140 32 -36 37 -39 63 -30 18 7 30
19 32 32 5 32 -44 127 -98 191 -93 112 -97 114 -138 108 -34 -6 -39 -4 -62 31
-23 34 -25 46 -25 157 -1 67 -4 129 -9 139 -8 17 -46 24 -59 10z"/>
<path d="M13000 2525 c-17 -20 -8 -49 16 -53 30 -4 48 21 34 47 -13 25 -33 27
-50 6z"/>
<path d="M43095 2508 c-36 -32 -43 -87 -17 -132 41 -69 165 -215 193 -226 36
-15 68 -8 102 24 41 38 44 68 11 134 -21 41 -43 67 -79 92 -27 19 -72 56 -99
83 -55 53 -73 57 -111 25z"/>
<path d="M42184 2449 c-89 -34 -133 -88 -230 -281 -110 -220 -126 -307 -62
-345 24 -15 28 -15 51 0 14 9 42 49 63 88 51 97 86 122 185 130 168 15 272
120 253 258 -9 72 -41 122 -94 149 -54 27 -99 27 -166 1z"/>
<path d="M18005 2390 c-26 -43 29 -171 112 -260 71 -77 89 -87 114 -64 10 9
19 27 19 38 0 12 -41 83 -92 159 -81 120 -96 137 -119 137 -16 0 -31 -5 -34
-10z"/>
<path d="M12766 2331 c-22 -24 -18 -80 7 -95 37 -22 78 69 45 102 -17 17 -32
15 -52 -7z"/>
<path d="M16183 2199 c-7 -7 -13 -22 -13 -33 0 -11 -12 -32 -27 -48 -26 -27
-26 -28 -7 -49 25 -28 55 -39 77 -27 18 9 24 48 7 48 -5 0 -10 7 -10 16 0 14
7 15 43 10 99 -16 168 0 154 37 -12 31 -202 69 -224 46z"/>
<path d="M15933 2173 c-24 -9 -15 -53 13 -65 53 -24 86 30 35 56 -16 9 -31 16
-33 15 -2 0 -9 -3 -15 -6z"/>
<path d="M12568 2129 c-12 -6 -18 -22 -18 -44 0 -30 3 -35 23 -35 29 0 47 18
47 45 0 20 -17 45 -29 45 -4 0 -14 -5 -23 -11z"/>
<path d="M16023 2123 c-4 -10 2 -23 16 -35 28 -22 45 -23 60 -4 10 12 8 19 -8
35 -25 25 -59 27 -68 4z"/>
<path d="M15546 2092 c-128 -68 -238 -199 -293 -350 -30 -81 -42 -256 -24
-341 43 -201 182 -391 413 -562 146 -108 350 -219 404 -219 19 0 24 5 24 24 0
13 -7 27 -16 30 -9 4 -114 71 -233 150 -223 149 -307 220 -388 330 -96 130
-133 234 -133 372 0 214 113 402 300 500 79 41 97 67 64 91 -26 19 -42 16
-118 -25z"/>
<path d="M11402 2100 c-18 -29 5 -77 58 -123 47 -40 70 -45 94 -21 22 22 20
35 -13 81 -55 76 -114 102 -139 63z"/>
<path d="M12339 2044 c-16 -19 -5 -122 14 -142 9 -8 23 -11 36 -7 21 6 27 28
23 85 -3 56 -48 94 -73 64z"/>
<path d="M42439 1955 c-42 -28 -49 -42 -49 -99 0 -80 72 -132 142 -103 42 18
58 37 65 80 7 45 -21 103 -61 128 -40 25 -54 24 -97 -6z"/>
<path d="M45160 1133 c-39 -32 -51 -61 -37 -88 13 -26 27 -35 54 -35 56 0 91
38 108 118 l7 32 -50 0 c-40 0 -57 -6 -82 -27z"/>
<path d="M12740 1107 c-30 -15 -35 -36 -17 -61 10 -13 47 -25 133 -42 65 -13
133 -24 151 -24 33 0 63 21 63 45 0 29 -33 43 -162 68 -155 31 -137 30 -168
14z"/>
<path d="M9291 984 c0 -11 3 -14 6 -6 3 7 2 16 -1 19 -3 4 -6 -2 -5 -13z"/>
<path d="M11600 805 c0 -8 5 -15 10 -15 6 0 10 7 10 15 0 8 -4 15 -10 15 -5 0
-10 -7 -10 -15z"/>
<path d="M16100 604 c0 -8 5 -12 10 -9 6 3 10 10 10 16 0 5 -4 9 -10 9 -5 0
-10 -7 -10 -16z"/>
<path d="M16165 580 c-3 -5 3 -10 14 -10 12 0 21 5 21 10 0 6 -6 10 -14 10 -8
0 -18 -4 -21 -10z"/>
<path d="M38085 536 c-5 -2 -91 -19 -190 -37 -99 -18 -186 -37 -193 -42 -7 -6
-12 -22 -10 -36 6 -52 115 -65 257 -31 156 38 277 43 476 20 291 -33 419 -40
499 -30 124 17 212 39 229 58 28 32 30 59 5 76 -30 21 -72 20 -224 -5 -69 -11
-138 -18 -153 -14 -91 19 -663 53 -696 41z"/>
<path d="M3555 351 c-46 -5 -50 -8 -53 -34 -6 -51 9 -57 132 -56 140 2 167 7
185 41 13 22 13 29 2 42 -11 13 -33 16 -115 14 -55 0 -123 -4 -151 -7z"/>
</g>
</svg>
